999
DXF file: C:\HTL INN\4.Klasse\Pixelboard\PixelBoard\peer_schnittdaten_pixel.dxf
999
Pro/ENGINEER 2024014 by Parametric Technology Corporation
  0
SECTION
  2
HEADER
  9
$ACADVER
  1
AC1015
  9
$DWGCODEPAGE
  3
ANSI_1252
  9
$EXTMAX
 10
210.0
 20
297.0
 30
0.0
  9
$EXTMIN
 10
0.0
 20
0.0
 30
0.0
  9
$LIMMIN
 10
0.0
 20
0.0
  9
$LIMMAX
 10
210.0
 20
297.0
  9
$VIEWCTR
 10
105.0
 20
148.5
  9
$VIEWSIZE
 40
297.0
  9
$CLAYER
  8
0
  9
$LTSCALE
 40
19.36
  9
$CELTYPE
  6
BYLAYER
  9
$DIMSCALE
 40
1.0
  9
$DIMASZ
 40
3.5
  9
$DIMEXO
 40
0.0
  9
$DIMDLI
 40
13.376
  9
$DIMEXE
 40
1.0
  9
$DIMCEN
 40
3.168
  9
$DIMLFAC
 40
1.0
  9
$DIMBLK
  1
_FILLED
  9
$DIMALT
 70
0
  9
$DIMALTF
 40
0.0393700787
  9
$DIMTXT
 40
3.5
  9
$DIMTOL
 70
1
  9
$DIMLIM
 70
0
  9
$DIMTFAC
 40
1.0
  9
$DIMTP
 40
0.001
  9
$DIMTM
 40
0.001
  9
$DIMGAP
 40
0.625
  9
$DIMDSEP
 70
46
  9
$AUNITS
 70
0
  9
$PDMODE
 70
3
  9
$PDSIZE
 40
1.5
  9
$HANDSEED
  5
41B
  9
$TILEMODE
 70
1
  9
$MEASUREMENT
 70
1
  9
$INSUNITS
 70
4
  0
ENDSEC
  0
SECTION
  2
CLASSES
  0
CLASS
  1
ACDBDICTIONARYWDFLT
  2
AcDbDictionaryWithDefault
  3
AutoCAD 2000
 90
0
280
0
281
0
  0
CLASS
  1
ACDBPLACEHOLDER
  2
AcDbPlaceHolder
  3
AutoCAD 2000
 90
0
280
0
281
0
  0
CLASS
  1
LAYOUT
  2
AcDbLayout
  3
AutoCAD 2000
 90
0
280
0
281
0
  0
ENDSEC
  0
SECTION
  2
TABLES
  0
TABLE
  2
VPORT
  5
8
100
AcDbSymbolTable
 70
2
  0
VPORT
  5
1F4
100
AcDbSymbolTableRecord
100
AcDbViewportTableRecord
  2
*ACTIVE
 70
0
 10
0.0
 20
0.0
 11
1.0
 21
1.0
 12
105.0
 22
148.5
 13
0.0
 23
0.0
 14
1.0
 24
1.0
 15
0.0
 25
0.0
 16
0.0
 26
0.0
 36
1.0
 17
0.0
 27
0.0
 37
0.0
 40
297.0
 41
0.7070707071
 42
50.0
 43
0.0
 44
0.0
 50
0.0
 51
0.0
 71
0
 72
100
 73
1
 74
1
 75
0
 76
0
 77
0
 78
0
  0
ENDTAB
  0
TABLE
  2
LTYPE
  5
5
100
AcDbSymbolTable
 70
6
  0
LTYPE
  5
14
100
AcDbSymbolTableRecord
100
AcDbLinetypeTableRecord
  2
BYBLOCK
 70
0
  3

 72
65
 73
0
 40
0.0
  0
LTYPE
  5
15
100
AcDbSymbolTableRecord
100
AcDbLinetypeTableRecord
  2
BYLAYER
 70
0
  3

 72
65
 73
0
 40
0.0
  0
LTYPE
  5
16
100
AcDbSymbolTableRecord
100
AcDbLinetypeTableRecord
  2
CONTINUOUS
 70
64
  3
Solid line
 72
65
 73
0
 40
0.0
  0
LTYPE
  5
1F5
100
AcDbSymbolTableRecord
100
AcDbLinetypeTableRecord
  2
CENTER
 70
64
  3
____ _ ____ _ ____ _ ____ _ ____ _ ____ _ ____
 72
65
 73
4
 40
0.6
 49
0.375
 74
0
 49
-0.075
 74
0
 49
0.075
 74
0
 49
-0.075
 74
0
  0
LTYPE
  5
1F6
100
AcDbSymbolTableRecord
100
AcDbLinetypeTableRecord
  2
HIDDEN
 70
64
  3
- - - - - - - - - - - - - - - - - - - -
 72
65
 73
2
 40
0.2
 49
0.1
 74
0
 49
-0.1
 74
0
  0
LTYPE
  5
1F7
100
AcDbSymbolTableRecord
100
AcDbLinetypeTableRecord
  2
PHANTOM
 70
64
  3
_____ _ _ _____ _ _ _____ _ _ _____
 72
65
 73
6
 40
0.8
 49
0.45
 74
0
 49
-0.05
 74
0
 49
0.1
 74
0
 49
-0.05
 74
0
 49
0.1
 74
0
 49
-0.05
 74
0
  0
LTYPE
  5
1F8
100
AcDbSymbolTableRecord
100
AcDbLinetypeTableRecord
  2
DOT
 70
64
  3
. . . . . . . . . . . . . . . . . . . .
 72
65
 73
2
 40
0.2
 49
0.1
 74
0
 49
-0.1
 74
0
  0
LTYPE
  5
1F9
100
AcDbSymbolTableRecord
100
AcDbLinetypeTableRecord
  2
DASHED
 70
64
  3
- - - - - - - - - - - - - - - - - - - -
 72
65
 73
2
 40
0.2
 49
0.1
 74
0
 49
-0.1
 74
0
  0
ENDTAB
  0
TABLE
  2
LAYER
  5
2
100
AcDbSymbolTable
 70
36
  0
LAYER
  5
10
100
AcDbSymbolTableRecord
100
AcDbLayerTableRecord
  2
0
 70
0
 62
7
  6
CONTINUOUS
370
-3
390
F
  0
LAYER
  5
1FA
100
AcDbSymbolTableRecord
100
AcDbLayerTableRecord
  2
DEFAULT_1
 70
0
 62
7
  6
CENTER
370
-3
390
F
  0
LAYER
  5
1FB
100
AcDbSymbolTableRecord
100
AcDbLayerTableRecord
  2
DEFAULT_2
 70
0
 62
8
  6
HIDDEN
370
-3
390
F
  0
LAYER
  5
1FC
100
AcDbSymbolTableRecord
100
AcDbLayerTableRecord
  2
DEFAULT_3
 70
0
 62
7
  6
PHANTOM
370
-3
390
F
  0
LAYER
  5
1FD
100
AcDbSymbolTableRecord
100
AcDbLayerTableRecord
  2
BASE
 70
0
 62
7
  6
CONTINUOUS
370
-3
390
F
  0
LAYER
  5
1FE
100
AcDbSymbolTableRecord
100
AcDbLayerTableRecord
  2
BODY1
 70
0
 62
7
  6
CONTINUOUS
370
-3
390
F
  0
LAYER
  5
1FF
100
AcDbSymbolTableRecord
100
AcDbLayerTableRecord
  2
BODY10
 70
0
 62
7
  6
CONTINUOUS
370
-3
390
F
  0
LAYER
  5
200
100
AcDbSymbolTableRecord
100
AcDbLayerTableRecord
  2
BODY11
 70
0
 62
7
  6
CONTINUOUS
370
-3
390
F
  0
LAYER
  5
201
100
AcDbSymbolTableRecord
100
AcDbLayerTableRecord
  2
BODY12
 70
0
 62
7
  6
CONTINUOUS
370
-3
390
F
  0
LAYER
  5
202
100
AcDbSymbolTableRecord
100
AcDbLayerTableRecord
  2
BODY13
 70
0
 62
7
  6
CONTINUOUS
370
-3
390
F
  0
LAYER
  5
203
100
AcDbSymbolTableRecord
100
AcDbLayerTableRecord
  2
BODY14
 70
0
 62
7
  6
CONTINUOUS
370
-3
390
F
  0
LAYER
  5
204
100
AcDbSymbolTableRecord
100
AcDbLayerTableRecord
  2
BODY15
 70
0
 62
7
  6
CONTINUOUS
370
-3
390
F
  0
LAYER
  5
205
100
AcDbSymbolTableRecord
100
AcDbLayerTableRecord
  2
BODY16
 70
0
 62
7
  6
CONTINUOUS
370
-3
390
F
  0
LAYER
  5
206
100
AcDbSymbolTableRecord
100
AcDbLayerTableRecord
  2
BODY17
 70
0
 62
7
  6
CONTINUOUS
370
-3
390
F
  0
LAYER
  5
207
100
AcDbSymbolTableRecord
100
AcDbLayerTableRecord
  2
BODY18
 70
0
 62
7
  6
CONTINUOUS
370
-3
390
F
  0
LAYER
  5
208
100
AcDbSymbolTableRecord
100
AcDbLayerTableRecord
  2
BODY19
 70
0
 62
7
  6
CONTINUOUS
370
-3
390
F
  0
LAYER
  5
209
100
AcDbSymbolTableRecord
100
AcDbLayerTableRecord
  2
BODY2
 70
0
 62
7
  6
CONTINUOUS
370
-3
390
F
  0
LAYER
  5
20A
100
AcDbSymbolTableRecord
100
AcDbLayerTableRecord
  2
BODY20
 70
0
 62
7
  6
CONTINUOUS
370
-3
390
F
  0
LAYER
  5
20B
100
AcDbSymbolTableRecord
100
AcDbLayerTableRecord
  2
BODY21
 70
0
 62
7
  6
CONTINUOUS
370
-3
390
F
  0
LAYER
  5
20C
100
AcDbSymbolTableRecord
100
AcDbLayerTableRecord
  2
BODY22
 70
0
 62
7
  6
CONTINUOUS
370
-3
390
F
  0
LAYER
  5
20D
100
AcDbSymbolTableRecord
100
AcDbLayerTableRecord
  2
BODY23
 70
0
 62
7
  6
CONTINUOUS
370
-3
390
F
  0
LAYER
  5
20E
100
AcDbSymbolTableRecord
100
AcDbLayerTableRecord
  2
BODY24
 70
0
 62
7
  6
CONTINUOUS
370
-3
390
F
  0
LAYER
  5
20F
100
AcDbSymbolTableRecord
100
AcDbLayerTableRecord
  2
BODY25
 70
0
 62
7
  6
CONTINUOUS
370
-3
390
F
  0
LAYER
  5
210
100
AcDbSymbolTableRecord
100
AcDbLayerTableRecord
  2
BODY3
 70
0
 62
7
  6
CONTINUOUS
370
-3
390
F
  0
LAYER
  5
211
100
AcDbSymbolTableRecord
100
AcDbLayerTableRecord
  2
BODY4
 70
0
 62
7
  6
CONTINUOUS
370
-3
390
F
  0
LAYER
  5
212
100
AcDbSymbolTableRecord
100
AcDbLayerTableRecord
  2
BODY5
 70
0
 62
7
  6
CONTINUOUS
370
-3
390
F
  0
LAYER
  5
213
100
AcDbSymbolTableRecord
100
AcDbLayerTableRecord
  2
BODY6
 70
0
 62
7
  6
CONTINUOUS
370
-3
390
F
  0
LAYER
  5
214
100
AcDbSymbolTableRecord
100
AcDbLayerTableRecord
  2
BODY7
 70
0
 62
7
  6
CONTINUOUS
370
-3
390
F
  0
LAYER
  5
215
100
AcDbSymbolTableRecord
100
AcDbLayerTableRecord
  2
BODY8
 70
0
 62
7
  6
CONTINUOUS
370
-3
390
F
  0
LAYER
  5
216
100
AcDbSymbolTableRecord
100
AcDbLayerTableRecord
  2
BODY9
 70
0
 62
7
  6
CONTINUOUS
370
-3
390
F
  0
LAYER
  5
217
100
AcDbSymbolTableRecord
100
AcDbLayerTableRecord
  2
CAP
 70
0
 62
7
  6
CONTINUOUS
370
-3
390
F
  0
LAYER
  5
218
100
AcDbSymbolTableRecord
100
AcDbLayerTableRecord
  2
CONTACT
 70
0
 62
7
  6
CONTINUOUS
370
-3
390
F
  0
LAYER
  5
219
100
AcDbSymbolTableRecord
100
AcDbLayerTableRecord
  2
CONTACT_MIRROR_
 70
0
 62
7
  6
CONTINUOUS
370
-3
390
F
  0
LAYER
  5
21A
100
AcDbSymbolTableRecord
100
AcDbLayerTableRecord
  2
CONTACT_PIN
 70
0
 62
7
  6
CONTINUOUS
370
-3
390
F
  0
LAYER
  5
21B
100
AcDbSymbolTableRecord
100
AcDbLayerTableRecord
  2
CONTACT_PIN_MIRROR_
 70
0
 62
7
  6
CONTINUOUS
370
-3
390
F
  0
LAYER
  5
21C
100
AcDbSymbolTableRecord
100
AcDbLayerTableRecord
  2
DHT22
 70
0
 62
7
  6
CONTINUOUS
370
-3
390
F
  0
LAYER
  5
21D
100
AcDbSymbolTableRecord
100
AcDbLayerTableRecord
  2
DHT22_1
 70
0
 62
7
  6
CONTINUOUS
370
-3
390
F
  0
LAYER
  5
21E
100
AcDbSymbolTableRecord
100
AcDbLayerTableRecord
  2
FLANGE
 70
0
 62
7
  6
CONTINUOUS
370
-3
390
F
  0
LAYER
  5
21F
100
AcDbSymbolTableRecord
100
AcDbLayerTableRecord
  2
RIGHT_ANGLE_3_PIN_HEADER
 70
0
 62
7
  6
CONTINUOUS
370
-3
390
F
  0
LAYER
  5
220
100
AcDbSymbolTableRecord
100
AcDbLayerTableRecord
  2
S-BG-EBENEN
 70
0
 62
7
  6
CONTINUOUS
370
-3
390
F
  0
LAYER
  5
221
100
AcDbSymbolTableRecord
100
AcDbLayerTableRecord
  2
S-BG-KOORDINATENSYSTEM
 70
0
 62
7
  6
CONTINUOUS
370
-3
390
F
  0
LAYER
  5
222
100
AcDbSymbolTableRecord
100
AcDbLayerTableRecord
  2
S-EBENEN
 70
0
 62
7
  6
CONTINUOUS
370
-3
390
F
  0
LAYER
  5
223
100
AcDbSymbolTableRecord
100
AcDbLayerTableRecord
  2
S-KOORDINATENSYSTEM
 70
0
 62
7
  6
CONTINUOUS
370
-3
390
F
  0
LAYER
  5
224
100
AcDbSymbolTableRecord
100
AcDbLayerTableRecord
  2
_ACHSEN
 70
0
 62
7
  6
CONTINUOUS
370
-3
390
F
  0
LAYER
  5
225
100
AcDbSymbolTableRecord
100
AcDbLayerTableRecord
  2
_EBENEN
 70
0
 62
7
  6
CONTINUOUS
370
-3
390
F
  0
LAYER
  5
226
100
AcDbSymbolTableRecord
100
AcDbLayerTableRecord
  2
_FLAECHEN
 70
0
 62
7
  6
CONTINUOUS
370
-3
390
F
  0
LAYER
  5
227
100
AcDbSymbolTableRecord
100
AcDbLayerTableRecord
  2
_GEWINDE
 70
0
 62
7
  6
CONTINUOUS
370
-3
390
F
  0
LAYER
  5
228
100
AcDbSymbolTableRecord
100
AcDbLayerTableRecord
  2
_KOORD_SYS
 70
0
 62
7
  6
CONTINUOUS
370
-3
390
F
  0
LAYER
  5
229
100
AcDbSymbolTableRecord
100
AcDbLayerTableRecord
  2
_KOPIE_GEOM
 70
0
 62
7
  6
CONTINUOUS
370
-3
390
F
  0
LAYER
  5
22A
100
AcDbSymbolTableRecord
100
AcDbLayerTableRecord
  2
_KOSMETIK
 70
0
 62
7
  6
CONTINUOUS
370
-3
390
F
  0
LAYER
  5
22B
100
AcDbSymbolTableRecord
100
AcDbLayerTableRecord
  2
_KURVEN
 70
0
 62
7
  6
CONTINUOUS
370
-3
390
F
  0
LAYER
  5
22C
100
AcDbSymbolTableRecord
100
AcDbLayerTableRecord
  2
_NOTIZEN
 70
0
 62
7
  6
CONTINUOUS
370
-3
390
F
  0
LAYER
  5
22D
100
AcDbSymbolTableRecord
100
AcDbLayerTableRecord
  2
_PUNKTE
 70
0
 62
7
  6
CONTINUOUS
370
-3
390
F
  0
LAYER
  5
22E
100
AcDbSymbolTableRecord
100
AcDbLayerTableRecord
  2
_SAMMELFLAECHEN
 70
0
 62
7
  6
CONTINUOUS
370
-3
390
F
  0
LAYER
  5
22F
100
AcDbSymbolTableRecord
100
AcDbLayerTableRecord
  2
_SYMBOLE
 70
0
 62
7
  6
CONTINUOUS
370
-3
390
F
  0
LAYER
  5
230
100
AcDbSymbolTableRecord
100
AcDbLayerTableRecord
  2
_TOLERANZEN
 70
0
 62
7
  6
CONTINUOUS
370
-3
390
F
  0
LAYER
  5
231
100
AcDbSymbolTableRecord
100
AcDbLayerTableRecord
  2
_ZEICH_ELEMENTE
 70
0
 62
7
  6
CONTINUOUS
370
-3
390
F
  0
ENDTAB
  0
TABLE
  2
STYLE
  5
3
100
AcDbSymbolTable
 70
1
  0
STYLE
  5
11
100
AcDbSymbolTableRecord
100
AcDbTextStyleTableRecord
  2
STANDARD
 70
0
 40
0.0
 41
0.8
 50
0.0
 71
0
 42
0.2
  3
txt
  4

  0
STYLE
  5
232
100
AcDbSymbolTableRecord
100
AcDbTextStyleTableRecord
  2
TEXTSTYLE_1
 70
0
 40
0.0
 41
0.8
 50
0.0
 71
0
 42
0.2
  3
gdt
  4

  0
ENDTAB
  0
TABLE
  2
VIEW
  5
6
100
AcDbSymbolTable
 70
0
  0
ENDTAB
  0
TABLE
  2
UCS
  5
7
100
AcDbSymbolTable
 70
0
  0
ENDTAB
  0
TABLE
  2
APPID
  5
9
100
AcDbSymbolTable
 70
1
  0
APPID
  5
233
100
AcDbSymbolTableRecord
100
AcDbRegAppTableRecord
  2
ACAD
 70
0
  0
ENDTAB
  0
TABLE
  2
BLOCK_RECORD
  5
1
100
AcDbSymbolTable
 70
0
  0
BLOCK_RECORD
  5
234
100
AcDbSymbolTableRecord
100
AcDbBlockTableRecord
  2
*Model_Space
  0
BLOCK_RECORD
  5
235
100
AcDbSymbolTableRecord
100
AcDbBlockTableRecord
  2
*Paper_Space
  0
BLOCK_RECORD
  5
236
100
AcDbSymbolTableRecord
100
AcDbBlockTableRecord
  2
_FILLED
  0
ENDTAB
  0
TABLE
  2
DIMSTYLE
  5
A
100
AcDbSymbolTable
 70
1
100
AcDbDimStyleTable
 71
0
  0
DIMSTYLE
105
237
100
AcDbSymbolTableRecord
100
AcDbDimStyleTableRecord
  2
STANDARD
 70
0
  3

  4

 40
1.0
 41
3.5
 42
0.0
 43
0.38
 44
1.0
 45
0.0
 46
0.0
 47
0.001
 48
0.001
140
3.5
141
0.09
142
0.0
143
25.4
144
1.0
145
0.0
146
1.0
147
0.625
 71
1
 72
0
 73
0
 74
0
 75
0
 76
0
 77
1
 78
8
 79
2
170
0
171
2
172
0
173
0
174
0
175
0
176
0
177
0
178
0
270
2
179
3
271
3
272
3
273
2
274
2
275
0
280
0
281
0
282
0
283
1
284
8
285
0
286
0
287
3
288
0
340
11
278
46
341
236
342
236
343
236
344
236
  0
ENDTAB
  0
ENDSEC
  0
SECTION
  2
BLOCKS
  0
BLOCK
  5
20
100
AcDbEntity
  8
0
100
AcDbBlockBegin
  2
*Model_Space
 70
0
 10
0.0
 20
0.0
 30
0.0
  3
*Model_Space
  1

  0
ENDBLK
  5
21
100
AcDbEntity
  8
0
100
AcDbBlockEnd
  0
BLOCK
  5
1C
100
AcDbEntity
  8
0
100
AcDbBlockBegin
  2
*Paper_Space
 70
0
 10
0.0
 20
0.0
 30
0.0
  3
*Paper_Space
  1

  0
ENDBLK
  5
1D
100
AcDbEntity
  8
0
100
AcDbBlockEnd
  0
BLOCK
  5
238
100
AcDbEntity
  8
0
100
AcDbBlockBegin
  2
_FILLED
 70
64
 10
0.0
 20
0.0
 30
0.0
  3
_FILLED
  1

  0
SOLID
  5
239
100
AcDbEntity
  8
0
  6
BYBLOCK
 62
0
100
AcDbTrace
 10
0.0
 20
0.0
 30
0.0
 11
-1.0
 21
0.1285714286
 31
0.0
 12
-1.0
 22
-0.1285714286
 32
0.0
 13
-1.0
 23
-0.1285714286
 33
0.0
  0
ENDBLK
  5
23A
100
AcDbEntity
  8
0
  6
BYBLOCK
 62
0
100
AcDbBlockEnd
  0
ENDSEC
  0
SECTION
  2
ENTITIES
  0
LINE
  5
23B
100
AcDbEntity
  8
0
100
AcDbLine
 62
7
  6
CONTINUOUS
 10
-533.3125084616
 20
421.6163451339
 30
0.0
 11
-533.3125084616
 21
239.6163451339
 31
0.0
  0
LINE
  5
23C
100
AcDbEntity
  8
0
100
AcDbLine
 62
7
  6
CONTINUOUS
 10
-525.3125084616
 20
231.6163451339
 30
0.0
 11
-183.3125084616
 21
231.6163451339
 31
0.0
  0
LINE
  5
23D
100
AcDbEntity
  8
0
100
AcDbLine
 62
7
  6
CONTINUOUS
 10
-183.3125084616
 20
429.6163451339
 30
0.0
 11
-525.3125084616
 21
429.6163451339
 31
0.0
  0
LINE
  5
23E
100
AcDbEntity
  8
0
100
AcDbLine
 62
7
  6
CONTINUOUS
 10
-175.3125084616
 20
239.6163451339
 30
0.0
 11
-175.3125084616
 21
421.6163451339
 31
0.0
  0
LINE
  5
23F
100
AcDbEntity
  8
0
100
AcDbLine
 62
7
  6
CONTINUOUS
 10
-163.5185813198
 20
347.7380389853
 30
0.0
 11
-163.5185813198
 21
292.7380389853
 31
0.0
  0
LINE
  5
240
100
AcDbEntity
  8
0
100
AcDbLine
 62
7
  6
CONTINUOUS
 10
-150.6185813198
 20
336.7380389853
 30
0.0
 11
-150.6185813198
 21
342.9380389853
 31
0.0
  0
LINE
  5
241
100
AcDbEntity
  8
0
100
AcDbLine
 62
7
  6
CONTINUOUS
 10
-148.4185813198
 20
336.7380389853
 30
0.0
 11
-148.4185813198
 21
342.9380389853
 31
0.0
  0
LINE
  5
242
100
AcDbEntity
  8
0
100
AcDbLine
 62
7
  6
CONTINUOUS
 10
-140.6185813198
 20
336.7380389853
 30
0.0
 11
-140.6185813198
 21
342.9380389853
 31
0.0
  0
LINE
  5
243
100
AcDbEntity
  8
0
100
AcDbLine
 62
7
  6
CONTINUOUS
 10
-138.4185813198
 20
336.7380389853
 30
0.0
 11
-138.4185813198
 21
342.9380389853
 31
0.0
  0
LINE
  5
244
100
AcDbEntity
  8
0
100
AcDbLine
 62
7
  6
CONTINUOUS
 10
-130.6185813198
 20
336.7380389853
 30
0.0
 11
-130.6185813198
 21
342.9380389853
 31
0.0
  0
LINE
  5
245
100
AcDbEntity
  8
0
100
AcDbLine
 62
7
  6
CONTINUOUS
 10
-128.4185813198
 20
336.7380389853
 30
0.0
 11
-128.4185813198
 21
342.9380389853
 31
0.0
  0
LINE
  5
246
100
AcDbEntity
  8
0
100
AcDbLine
 62
7
  6
CONTINUOUS
 10
-120.6185813198
 20
336.7380389853
 30
0.0
 11
-120.6185813198
 21
342.9380389853
 31
0.0
  0
LINE
  5
247
100
AcDbEntity
  8
0
100
AcDbLine
 62
7
  6
CONTINUOUS
 10
-118.4185813198
 20
336.7380389853
 30
0.0
 11
-118.4185813198
 21
342.9380389853
 31
0.0
  0
LINE
  5
248
100
AcDbEntity
  8
0
100
AcDbLine
 62
7
  6
CONTINUOUS
 10
-110.6185813198
 20
336.7380389853
 30
0.0
 11
-110.6185813198
 21
342.9380389853
 31
0.0
  0
LINE
  5
249
100
AcDbEntity
  8
0
100
AcDbLine
 62
7
  6
CONTINUOUS
 10
-108.4185813198
 20
336.7380389853
 30
0.0
 11
-108.4185813198
 21
342.9380389853
 31
0.0
  0
LINE
  5
24A
100
AcDbEntity
  8
0
100
AcDbLine
 62
7
  6
CONTINUOUS
 10
-100.6185813198
 20
336.7380389853
 30
0.0
 11
-100.6185813198
 21
342.9380389853
 31
0.0
  0
LINE
  5
24B
100
AcDbEntity
  8
0
100
AcDbLine
 62
7
  6
CONTINUOUS
 10
-98.4185813198
 20
336.7380389853
 30
0.0
 11
-98.4185813198
 21
342.9380389853
 31
0.0
  0
LINE
  5
24C
100
AcDbEntity
  8
0
100
AcDbLine
 62
7
  6
CONTINUOUS
 10
-90.6185813198
 20
336.7380389853
 30
0.0
 11
-90.6185813198
 21
342.9380389853
 31
0.0
  0
LINE
  5
24D
100
AcDbEntity
  8
0
100
AcDbLine
 62
7
  6
CONTINUOUS
 10
-88.4185813198
 20
336.7380389853
 30
0.0
 11
-88.4185813198
 21
342.9380389853
 31
0.0
  0
LINE
  5
24E
100
AcDbEntity
  8
0
100
AcDbLine
 62
7
  6
CONTINUOUS
 10
-80.6185813198
 20
336.7380389853
 30
0.0
 11
-80.6185813198
 21
342.9380389853
 31
0.0
  0
LINE
  5
24F
100
AcDbEntity
  8
0
100
AcDbLine
 62
7
  6
CONTINUOUS
 10
-78.4185813198
 20
336.7380389853
 30
0.0
 11
-78.4185813198
 21
342.9380389853
 31
0.0
  0
LINE
  5
250
100
AcDbEntity
  8
0
100
AcDbLine
 62
7
  6
CONTINUOUS
 10
-70.6185813198
 20
336.7380389853
 30
0.0
 11
-70.6185813198
 21
342.9380389853
 31
0.0
  0
LINE
  5
251
100
AcDbEntity
  8
0
100
AcDbLine
 62
7
  6
CONTINUOUS
 10
-68.4185813198
 20
336.7380389853
 30
0.0
 11
-68.4185813198
 21
342.9380389853
 31
0.0
  0
LINE
  5
252
100
AcDbEntity
  8
0
100
AcDbLine
 62
7
  6
CONTINUOUS
 10
-60.6185813198
 20
336.7380389853
 30
0.0
 11
-60.6185813198
 21
342.9380389853
 31
0.0
  0
LINE
  5
253
100
AcDbEntity
  8
0
100
AcDbLine
 62
7
  6
CONTINUOUS
 10
-58.4185813198
 20
336.7380389853
 30
0.0
 11
-58.4185813198
 21
342.9380389853
 31
0.0
  0
LINE
  5
254
100
AcDbEntity
  8
0
100
AcDbLine
 62
7
  6
CONTINUOUS
 10
-50.6185813198
 20
336.7380389853
 30
0.0
 11
-50.6185813198
 21
342.9380389853
 31
0.0
  0
LINE
  5
255
100
AcDbEntity
  8
0
100
AcDbLine
 62
7
  6
CONTINUOUS
 10
-48.4185813198
 20
336.7380389853
 30
0.0
 11
-48.4185813198
 21
342.9380389853
 31
0.0
  0
LINE
  5
256
100
AcDbEntity
  8
0
100
AcDbLine
 62
7
  6
CONTINUOUS
 10
-40.6185813198
 20
336.7380389853
 30
0.0
 11
-40.6185813198
 21
342.9380389853
 31
0.0
  0
LINE
  5
257
100
AcDbEntity
  8
0
100
AcDbLine
 62
7
  6
CONTINUOUS
 10
-38.4185813198
 20
336.7380389853
 30
0.0
 11
-38.4185813198
 21
342.9380389853
 31
0.0
  0
LINE
  5
258
100
AcDbEntity
  8
0
100
AcDbLine
 62
7
  6
CONTINUOUS
 10
-30.6185813198
 20
336.7380389853
 30
0.0
 11
-30.6185813198
 21
342.9380389853
 31
0.0
  0
LINE
  5
259
100
AcDbEntity
  8
0
100
AcDbLine
 62
7
  6
CONTINUOUS
 10
-28.4185813198
 20
336.7380389853
 30
0.0
 11
-28.4185813198
 21
342.9380389853
 31
0.0
  0
LINE
  5
25A
100
AcDbEntity
  8
0
100
AcDbLine
 62
7
  6
CONTINUOUS
 10
-20.6185813198
 20
336.7380389853
 30
0.0
 11
-20.6185813198
 21
342.9380389853
 31
0.0
  0
LINE
  5
25B
100
AcDbEntity
  8
0
100
AcDbLine
 62
7
  6
CONTINUOUS
 10
-163.5185813198
 20
292.7380389853
 30
0.0
 11
164.4814186802
 21
292.7380389853
 31
0.0
  0
LINE
  5
25C
100
AcDbEntity
  8
0
100
AcDbLine
 62
7
  6
CONTINUOUS
 10
-18.4185813198
 20
336.7380389853
 30
0.0
 11
-18.4185813198
 21
342.9380389853
 31
0.0
  0
LINE
  5
25D
100
AcDbEntity
  8
0
100
AcDbLine
 62
7
  6
CONTINUOUS
 10
-10.6185813198
 20
336.7380389853
 30
0.0
 11
-10.6185813198
 21
342.9380389853
 31
0.0
  0
LINE
  5
25E
100
AcDbEntity
  8
0
100
AcDbLine
 62
7
  6
CONTINUOUS
 10
15.7581550952
 20
306.7256490545
 30
0.0
 11
-5.2418449048
 21
306.7256490545
 31
0.0
  0
LINE
  5
25F
100
AcDbEntity
  8
0
100
AcDbLine
 62
7
  6
CONTINUOUS
 10
-8.4185813198
 20
336.7380389853
 30
0.0
 11
-8.4185813198
 21
342.9380389853
 31
0.0
  0
LINE
  5
260
100
AcDbEntity
  8
0
100
AcDbLine
 62
7
  6
CONTINUOUS
 10
-5.2418449048
 20
306.7256490545
 30
0.0
 11
-5.2418449048
 21
321.7279388402
 31
0.0
  0
LINE
  5
261
100
AcDbEntity
  8
0
100
AcDbLine
 62
7
  6
CONTINUOUS
 10
-0.6185813198
 20
336.7380389853
 30
0.0
 11
-0.6185813198
 21
342.9380389853
 31
0.0
  0
LINE
  5
262
100
AcDbEntity
  8
0
100
AcDbLine
 62
7
  6
CONTINUOUS
 10
1.5814186802
 20
336.7380389853
 30
0.0
 11
1.5814186802
 21
342.9380389853
 31
0.0
  0
LINE
  5
263
100
AcDbEntity
  8
0
100
AcDbLine
 62
7
  6
CONTINUOUS
 10
9.3814186802
 20
336.7380389853
 30
0.0
 11
9.3814186802
 21
342.9380389853
 31
0.0
  0
LINE
  5
264
100
AcDbEntity
  8
0
100
AcDbLine
 62
7
  6
CONTINUOUS
 10
11.5814186802
 20
336.7380389853
 30
0.0
 11
11.5814186802
 21
342.9380389853
 31
0.0
  0
LINE
  5
265
100
AcDbEntity
  8
0
100
AcDbLine
 62
7
  6
CONTINUOUS
 10
-5.2418449048
 20
321.7279388402
 30
0.0
 11
15.7581550952
 21
321.7279388402
 31
0.0
  0
LINE
  5
266
100
AcDbEntity
  8
0
100
AcDbLine
 62
7
  6
CONTINUOUS
 10
15.7581550952
 20
321.7279388402
 30
0.0
 11
15.7581550952
 21
306.7256490545
 31
0.0
  0
LINE
  5
267
100
AcDbEntity
  8
0
100
AcDbLine
 62
7
  6
CONTINUOUS
 10
19.3814186802
 20
336.7380389853
 30
0.0
 11
19.3814186802
 21
342.9380389853
 31
0.0
  0
LINE
  5
268
100
AcDbEntity
  8
0
100
AcDbLine
 62
7
  6
CONTINUOUS
 10
21.5814186802
 20
336.7380389853
 30
0.0
 11
21.5814186802
 21
342.9380389853
 31
0.0
  0
LINE
  5
269
100
AcDbEntity
  8
0
100
AcDbLine
 62
7
  6
CONTINUOUS
 10
-150.6185813198
 20
336.7380389853
 30
0.0
 11
-148.4185813198
 21
336.7380389853
 31
0.0
  0
LINE
  5
26A
100
AcDbEntity
  8
0
100
AcDbLine
 62
7
  6
CONTINUOUS
 10
-140.6185813198
 20
336.7380389853
 30
0.0
 11
-138.4185813198
 21
336.7380389853
 31
0.0
  0
LINE
  5
26B
100
AcDbEntity
  8
0
100
AcDbLine
 62
7
  6
CONTINUOUS
 10
-130.6185813198
 20
336.7380389853
 30
0.0
 11
-128.4185813198
 21
336.7380389853
 31
0.0
  0
LINE
  5
26C
100
AcDbEntity
  8
0
100
AcDbLine
 62
7
  6
CONTINUOUS
 10
-120.6185813198
 20
336.7380389853
 30
0.0
 11
-118.4185813198
 21
336.7380389853
 31
0.0
  0
LINE
  5
26D
100
AcDbEntity
  8
0
100
AcDbLine
 62
7
  6
CONTINUOUS
 10
-110.6185813198
 20
336.7380389853
 30
0.0
 11
-108.4185813198
 21
336.7380389853
 31
0.0
  0
LINE
  5
26E
100
AcDbEntity
  8
0
100
AcDbLine
 62
7
  6
CONTINUOUS
 10
-100.6185813198
 20
336.7380389853
 30
0.0
 11
-98.4185813198
 21
336.7380389853
 31
0.0
  0
LINE
  5
26F
100
AcDbEntity
  8
0
100
AcDbLine
 62
7
  6
CONTINUOUS
 10
-90.6185813198
 20
336.7380389853
 30
0.0
 11
-88.4185813198
 21
336.7380389853
 31
0.0
  0
LINE
  5
270
100
AcDbEntity
  8
0
100
AcDbLine
 62
7
  6
CONTINUOUS
 10
-80.6185813198
 20
336.7380389853
 30
0.0
 11
-78.4185813198
 21
336.7380389853
 31
0.0
  0
LINE
  5
271
100
AcDbEntity
  8
0
100
AcDbLine
 62
7
  6
CONTINUOUS
 10
-70.6185813198
 20
336.7380389853
 30
0.0
 11
-68.4185813198
 21
336.7380389853
 31
0.0
  0
LINE
  5
272
100
AcDbEntity
  8
0
100
AcDbLine
 62
7
  6
CONTINUOUS
 10
-60.6185813198
 20
336.7380389853
 30
0.0
 11
-58.4185813198
 21
336.7380389853
 31
0.0
  0
LINE
  5
273
100
AcDbEntity
  8
0
100
AcDbLine
 62
7
  6
CONTINUOUS
 10
-50.6185813198
 20
336.7380389853
 30
0.0
 11
-48.4185813198
 21
336.7380389853
 31
0.0
  0
LINE
  5
274
100
AcDbEntity
  8
0
100
AcDbLine
 62
7
  6
CONTINUOUS
 10
-40.6185813198
 20
336.7380389853
 30
0.0
 11
-38.4185813198
 21
336.7380389853
 31
0.0
  0
LINE
  5
275
100
AcDbEntity
  8
0
100
AcDbLine
 62
7
  6
CONTINUOUS
 10
-30.6185813198
 20
336.7380389853
 30
0.0
 11
-28.4185813198
 21
336.7380389853
 31
0.0
  0
LINE
  5
276
100
AcDbEntity
  8
0
100
AcDbLine
 62
7
  6
CONTINUOUS
 10
-20.6185813198
 20
336.7380389853
 30
0.0
 11
-18.4185813198
 21
336.7380389853
 31
0.0
  0
LINE
  5
277
100
AcDbEntity
  8
0
100
AcDbLine
 62
7
  6
CONTINUOUS
 10
-10.6185813198
 20
336.7380389853
 30
0.0
 11
-8.4185813198
 21
336.7380389853
 31
0.0
  0
LINE
  5
278
100
AcDbEntity
  8
0
100
AcDbLine
 62
7
  6
CONTINUOUS
 10
-0.6185813198
 20
336.7380389853
 30
0.0
 11
1.5814186802
 21
336.7380389853
 31
0.0
  0
LINE
  5
279
100
AcDbEntity
  8
0
100
AcDbLine
 62
7
  6
CONTINUOUS
 10
9.3814186802
 20
336.7380389853
 30
0.0
 11
11.5814186802
 21
336.7380389853
 31
0.0
  0
LINE
  5
27A
100
AcDbEntity
  8
0
100
AcDbLine
 62
7
  6
CONTINUOUS
 10
19.3814186802
 20
336.7380389853
 30
0.0
 11
21.5814186802
 21
336.7380389853
 31
0.0
  0
LINE
  5
27B
100
AcDbEntity
  8
0
100
AcDbLine
 62
7
  6
CONTINUOUS
 10
29.3814186802
 20
336.7380389853
 30
0.0
 11
31.5814186802
 21
336.7380389853
 31
0.0
  0
LINE
  5
27C
100
AcDbEntity
  8
0
100
AcDbLine
 62
7
  6
CONTINUOUS
 10
39.3814186802
 20
336.7380389853
 30
0.0
 11
41.5814186802
 21
336.7380389853
 31
0.0
  0
LINE
  5
27D
100
AcDbEntity
  8
0
100
AcDbLine
 62
7
  6
CONTINUOUS
 10
49.3814186802
 20
336.7380389853
 30
0.0
 11
51.5814186802
 21
336.7380389853
 31
0.0
  0
LINE
  5
27E
100
AcDbEntity
  8
0
100
AcDbLine
 62
7
  6
CONTINUOUS
 10
59.3814186802
 20
336.7380389853
 30
0.0
 11
61.5814186802
 21
336.7380389853
 31
0.0
  0
LINE
  5
27F
100
AcDbEntity
  8
0
100
AcDbLine
 62
7
  6
CONTINUOUS
 10
69.3814186802
 20
336.7380389853
 30
0.0
 11
71.5814186802
 21
336.7380389853
 31
0.0
  0
LINE
  5
280
100
AcDbEntity
  8
0
100
AcDbLine
 62
7
  6
CONTINUOUS
 10
79.3814186802
 20
336.7380389853
 30
0.0
 11
81.5814186802
 21
336.7380389853
 31
0.0
  0
LINE
  5
281
100
AcDbEntity
  8
0
100
AcDbLine
 62
7
  6
CONTINUOUS
 10
89.3814186802
 20
336.7380389853
 30
0.0
 11
91.5814186802
 21
336.7380389853
 31
0.0
  0
LINE
  5
282
100
AcDbEntity
  8
0
100
AcDbLine
 62
7
  6
CONTINUOUS
 10
99.3814186802
 20
336.7380389853
 30
0.0
 11
101.5814186802
 21
336.7380389853
 31
0.0
  0
LINE
  5
283
100
AcDbEntity
  8
0
100
AcDbLine
 62
7
  6
CONTINUOUS
 10
109.3814186802
 20
336.7380389853
 30
0.0
 11
111.5814186802
 21
336.7380389853
 31
0.0
  0
LINE
  5
284
100
AcDbEntity
  8
0
100
AcDbLine
 62
7
  6
CONTINUOUS
 10
119.3814186802
 20
336.7380389853
 30
0.0
 11
121.5814186802
 21
336.7380389853
 31
0.0
  0
LINE
  5
285
100
AcDbEntity
  8
0
100
AcDbLine
 62
7
  6
CONTINUOUS
 10
129.3814186802
 20
336.7380389853
 30
0.0
 11
131.5814186802
 21
336.7380389853
 31
0.0
  0
LINE
  5
286
100
AcDbEntity
  8
0
100
AcDbLine
 62
7
  6
CONTINUOUS
 10
139.3814186802
 20
336.7380389853
 30
0.0
 11
141.5814186802
 21
336.7380389853
 31
0.0
  0
LINE
  5
287
100
AcDbEntity
  8
0
100
AcDbLine
 62
7
  6
CONTINUOUS
 10
149.3814186802
 20
336.7380389853
 30
0.0
 11
151.5814186802
 21
336.7380389853
 31
0.0
  0
LINE
  5
288
100
AcDbEntity
  8
0
100
AcDbLine
 62
7
  6
CONTINUOUS
 10
-150.6185813198
 20
342.9380389853
 30
0.0
 11
-148.4185813198
 21
342.9380389853
 31
0.0
  0
LINE
  5
289
100
AcDbEntity
  8
0
100
AcDbLine
 62
7
  6
CONTINUOUS
 10
-140.6185813198
 20
342.9380389853
 30
0.0
 11
-138.4185813198
 21
342.9380389853
 31
0.0
  0
LINE
  5
28A
100
AcDbEntity
  8
0
100
AcDbLine
 62
7
  6
CONTINUOUS
 10
-130.6185813198
 20
342.9380389853
 30
0.0
 11
-128.4185813198
 21
342.9380389853
 31
0.0
  0
LINE
  5
28B
100
AcDbEntity
  8
0
100
AcDbLine
 62
7
  6
CONTINUOUS
 10
-120.6185813198
 20
342.9380389853
 30
0.0
 11
-118.4185813198
 21
342.9380389853
 31
0.0
  0
LINE
  5
28C
100
AcDbEntity
  8
0
100
AcDbLine
 62
7
  6
CONTINUOUS
 10
-110.6185813198
 20
342.9380389853
 30
0.0
 11
-108.4185813198
 21
342.9380389853
 31
0.0
  0
LINE
  5
28D
100
AcDbEntity
  8
0
100
AcDbLine
 62
7
  6
CONTINUOUS
 10
-100.6185813198
 20
342.9380389853
 30
0.0
 11
-98.4185813198
 21
342.9380389853
 31
0.0
  0
LINE
  5
28E
100
AcDbEntity
  8
0
100
AcDbLine
 62
7
  6
CONTINUOUS
 10
-90.6185813198
 20
342.9380389853
 30
0.0
 11
-88.4185813198
 21
342.9380389853
 31
0.0
  0
LINE
  5
28F
100
AcDbEntity
  8
0
100
AcDbLine
 62
7
  6
CONTINUOUS
 10
-80.6185813198
 20
342.9380389853
 30
0.0
 11
-78.4185813198
 21
342.9380389853
 31
0.0
  0
LINE
  5
290
100
AcDbEntity
  8
0
100
AcDbLine
 62
7
  6
CONTINUOUS
 10
-70.6185813198
 20
342.9380389853
 30
0.0
 11
-68.4185813198
 21
342.9380389853
 31
0.0
  0
LINE
  5
291
100
AcDbEntity
  8
0
100
AcDbLine
 62
7
  6
CONTINUOUS
 10
-60.6185813198
 20
342.9380389853
 30
0.0
 11
-58.4185813198
 21
342.9380389853
 31
0.0
  0
LINE
  5
292
100
AcDbEntity
  8
0
100
AcDbLine
 62
7
  6
CONTINUOUS
 10
-50.6185813198
 20
342.9380389853
 30
0.0
 11
-48.4185813198
 21
342.9380389853
 31
0.0
  0
LINE
  5
293
100
AcDbEntity
  8
0
100
AcDbLine
 62
7
  6
CONTINUOUS
 10
-40.6185813198
 20
342.9380389853
 30
0.0
 11
-38.4185813198
 21
342.9380389853
 31
0.0
  0
LINE
  5
294
100
AcDbEntity
  8
0
100
AcDbLine
 62
7
  6
CONTINUOUS
 10
-30.6185813198
 20
342.9380389853
 30
0.0
 11
-28.4185813198
 21
342.9380389853
 31
0.0
  0
LINE
  5
295
100
AcDbEntity
  8
0
100
AcDbLine
 62
7
  6
CONTINUOUS
 10
-20.6185813198
 20
342.9380389853
 30
0.0
 11
-18.4185813198
 21
342.9380389853
 31
0.0
  0
LINE
  5
296
100
AcDbEntity
  8
0
100
AcDbLine
 62
7
  6
CONTINUOUS
 10
-10.6185813198
 20
342.9380389853
 30
0.0
 11
-8.4185813198
 21
342.9380389853
 31
0.0
  0
LINE
  5
297
100
AcDbEntity
  8
0
100
AcDbLine
 62
7
  6
CONTINUOUS
 10
-0.6185813198
 20
342.9380389853
 30
0.0
 11
1.5814186802
 21
342.9380389853
 31
0.0
  0
LINE
  5
298
100
AcDbEntity
  8
0
100
AcDbLine
 62
7
  6
CONTINUOUS
 10
9.3814186802
 20
342.9380389853
 30
0.0
 11
11.5814186802
 21
342.9380389853
 31
0.0
  0
LINE
  5
299
100
AcDbEntity
  8
0
100
AcDbLine
 62
7
  6
CONTINUOUS
 10
19.3814186802
 20
342.9380389853
 30
0.0
 11
21.5814186802
 21
342.9380389853
 31
0.0
  0
LINE
  5
29A
100
AcDbEntity
  8
0
100
AcDbLine
 62
7
  6
CONTINUOUS
 10
29.3814186802
 20
342.9380389853
 30
0.0
 11
31.5814186802
 21
342.9380389853
 31
0.0
  0
LINE
  5
29B
100
AcDbEntity
  8
0
100
AcDbLine
 62
7
  6
CONTINUOUS
 10
39.3814186802
 20
342.9380389853
 30
0.0
 11
41.5814186802
 21
342.9380389853
 31
0.0
  0
LINE
  5
29C
100
AcDbEntity
  8
0
100
AcDbLine
 62
7
  6
CONTINUOUS
 10
49.3814186802
 20
342.9380389853
 30
0.0
 11
51.5814186802
 21
342.9380389853
 31
0.0
  0
LINE
  5
29D
100
AcDbEntity
  8
0
100
AcDbLine
 62
7
  6
CONTINUOUS
 10
59.3814186802
 20
342.9380389853
 30
0.0
 11
61.5814186802
 21
342.9380389853
 31
0.0
  0
LINE
  5
29E
100
AcDbEntity
  8
0
100
AcDbLine
 62
7
  6
CONTINUOUS
 10
69.3814186802
 20
342.9380389853
 30
0.0
 11
71.5814186802
 21
342.9380389853
 31
0.0
  0
LINE
  5
29F
100
AcDbEntity
  8
0
100
AcDbLine
 62
7
  6
CONTINUOUS
 10
79.3814186802
 20
342.9380389853
 30
0.0
 11
81.5814186802
 21
342.9380389853
 31
0.0
  0
LINE
  5
2A0
100
AcDbEntity
  8
0
100
AcDbLine
 62
7
  6
CONTINUOUS
 10
89.3814186802
 20
342.9380389853
 30
0.0
 11
91.5814186802
 21
342.9380389853
 31
0.0
  0
LINE
  5
2A1
100
AcDbEntity
  8
0
100
AcDbLine
 62
7
  6
CONTINUOUS
 10
99.3814186802
 20
342.9380389853
 30
0.0
 11
101.5814186802
 21
342.9380389853
 31
0.0
  0
LINE
  5
2A2
100
AcDbEntity
  8
0
100
AcDbLine
 62
7
  6
CONTINUOUS
 10
109.3814186802
 20
342.9380389853
 30
0.0
 11
111.5814186802
 21
342.9380389853
 31
0.0
  0
LINE
  5
2A3
100
AcDbEntity
  8
0
100
AcDbLine
 62
7
  6
CONTINUOUS
 10
119.3814186802
 20
342.9380389853
 30
0.0
 11
121.5814186802
 21
342.9380389853
 31
0.0
  0
LINE
  5
2A4
100
AcDbEntity
  8
0
100
AcDbLine
 62
7
  6
CONTINUOUS
 10
129.3814186802
 20
342.9380389853
 30
0.0
 11
131.5814186802
 21
342.9380389853
 31
0.0
  0
LINE
  5
2A5
100
AcDbEntity
  8
0
100
AcDbLine
 62
7
  6
CONTINUOUS
 10
139.3814186802
 20
342.9380389853
 30
0.0
 11
141.5814186802
 21
342.9380389853
 31
0.0
  0
LINE
  5
2A6
100
AcDbEntity
  8
0
100
AcDbLine
 62
7
  6
CONTINUOUS
 10
149.3814186802
 20
342.9380389853
 30
0.0
 11
151.5814186802
 21
342.9380389853
 31
0.0
  0
LINE
  5
2A7
100
AcDbEntity
  8
0
100
AcDbLine
 62
7
  6
CONTINUOUS
 10
29.3814186802
 20
336.7380389853
 30
0.0
 11
29.3814186802
 21
342.9380389853
 31
0.0
  0
LINE
  5
2A8
100
AcDbEntity
  8
0
100
AcDbLine
 62
7
  6
CONTINUOUS
 10
31.5814186802
 20
336.7380389853
 30
0.0
 11
31.5814186802
 21
342.9380389853
 31
0.0
  0
LINE
  5
2A9
100
AcDbEntity
  8
0
100
AcDbLine
 62
7
  6
CONTINUOUS
 10
164.4814186802
 20
347.7380389853
 30
0.0
 11
-163.5185813198
 21
347.7380389853
 31
0.0
  0
LINE
  5
2AA
100
AcDbEntity
  8
0
100
AcDbLine
 62
7
  6
CONTINUOUS
 10
39.3814186802
 20
336.7380389853
 30
0.0
 11
39.3814186802
 21
342.9380389853
 31
0.0
  0
LINE
  5
2AB
100
AcDbEntity
  8
0
100
AcDbLine
 62
7
  6
CONTINUOUS
 10
41.5814186802
 20
336.7380389853
 30
0.0
 11
41.5814186802
 21
342.9380389853
 31
0.0
  0
LINE
  5
2AC
100
AcDbEntity
  8
0
100
AcDbLine
 62
7
  6
CONTINUOUS
 10
49.3814186802
 20
336.7380389853
 30
0.0
 11
49.3814186802
 21
342.9380389853
 31
0.0
  0
LINE
  5
2AD
100
AcDbEntity
  8
0
100
AcDbLine
 62
7
  6
CONTINUOUS
 10
51.5814186802
 20
336.7380389853
 30
0.0
 11
51.5814186802
 21
342.9380389853
 31
0.0
  0
LINE
  5
2AE
100
AcDbEntity
  8
0
100
AcDbLine
 62
7
  6
CONTINUOUS
 10
59.3814186802
 20
336.7380389853
 30
0.0
 11
59.3814186802
 21
342.9380389853
 31
0.0
  0
LINE
  5
2AF
100
AcDbEntity
  8
0
100
AcDbLine
 62
7
  6
CONTINUOUS
 10
61.5814186802
 20
336.7380389853
 30
0.0
 11
61.5814186802
 21
342.9380389853
 31
0.0
  0
LINE
  5
2B0
100
AcDbEntity
  8
0
100
AcDbLine
 62
7
  6
CONTINUOUS
 10
69.3814186802
 20
336.7380389853
 30
0.0
 11
69.3814186802
 21
342.9380389853
 31
0.0
  0
LINE
  5
2B1
100
AcDbEntity
  8
0
100
AcDbLine
 62
7
  6
CONTINUOUS
 10
71.5814186802
 20
336.7380389853
 30
0.0
 11
71.5814186802
 21
342.9380389853
 31
0.0
  0
LINE
  5
2B2
100
AcDbEntity
  8
0
100
AcDbLine
 62
7
  6
CONTINUOUS
 10
79.3814186802
 20
336.7380389853
 30
0.0
 11
79.3814186802
 21
342.9380389853
 31
0.0
  0
LINE
  5
2B3
100
AcDbEntity
  8
0
100
AcDbLine
 62
7
  6
CONTINUOUS
 10
81.5814186802
 20
336.7380389853
 30
0.0
 11
81.5814186802
 21
342.9380389853
 31
0.0
  0
LINE
  5
2B4
100
AcDbEntity
  8
0
100
AcDbLine
 62
7
  6
CONTINUOUS
 10
89.3814186802
 20
336.7380389853
 30
0.0
 11
89.3814186802
 21
342.9380389853
 31
0.0
  0
LINE
  5
2B5
100
AcDbEntity
  8
0
100
AcDbLine
 62
7
  6
CONTINUOUS
 10
91.5814186802
 20
336.7380389853
 30
0.0
 11
91.5814186802
 21
342.9380389853
 31
0.0
  0
LINE
  5
2B6
100
AcDbEntity
  8
0
100
AcDbLine
 62
7
  6
CONTINUOUS
 10
99.3814186802
 20
336.7380389853
 30
0.0
 11
99.3814186802
 21
342.9380389853
 31
0.0
  0
LINE
  5
2B7
100
AcDbEntity
  8
0
100
AcDbLine
 62
7
  6
CONTINUOUS
 10
101.5814186802
 20
336.7380389853
 30
0.0
 11
101.5814186802
 21
342.9380389853
 31
0.0
  0
LINE
  5
2B8
100
AcDbEntity
  8
0
100
AcDbLine
 62
7
  6
CONTINUOUS
 10
109.3814186802
 20
336.7380389853
 30
0.0
 11
109.3814186802
 21
342.9380389853
 31
0.0
  0
LINE
  5
2B9
100
AcDbEntity
  8
0
100
AcDbLine
 62
7
  6
CONTINUOUS
 10
111.5814186802
 20
336.7380389853
 30
0.0
 11
111.5814186802
 21
342.9380389853
 31
0.0
  0
LINE
  5
2BA
100
AcDbEntity
  8
0
100
AcDbLine
 62
7
  6
CONTINUOUS
 10
119.3814186802
 20
336.7380389853
 30
0.0
 11
119.3814186802
 21
342.9380389853
 31
0.0
  0
LINE
  5
2BB
100
AcDbEntity
  8
0
100
AcDbLine
 62
7
  6
CONTINUOUS
 10
121.5814186802
 20
336.7380389853
 30
0.0
 11
121.5814186802
 21
342.9380389853
 31
0.0
  0
LINE
  5
2BC
100
AcDbEntity
  8
0
100
AcDbLine
 62
7
  6
CONTINUOUS
 10
129.3814186802
 20
336.7380389853
 30
0.0
 11
129.3814186802
 21
342.9380389853
 31
0.0
  0
LINE
  5
2BD
100
AcDbEntity
  8
0
100
AcDbLine
 62
7
  6
CONTINUOUS
 10
131.5814186802
 20
336.7380389853
 30
0.0
 11
131.5814186802
 21
342.9380389853
 31
0.0
  0
LINE
  5
2BE
100
AcDbEntity
  8
0
100
AcDbLine
 62
7
  6
CONTINUOUS
 10
139.3814186802
 20
336.7380389853
 30
0.0
 11
139.3814186802
 21
342.9380389853
 31
0.0
  0
LINE
  5
2BF
100
AcDbEntity
  8
0
100
AcDbLine
 62
7
  6
CONTINUOUS
 10
141.5814186802
 20
336.7380389853
 30
0.0
 11
141.5814186802
 21
342.9380389853
 31
0.0
  0
LINE
  5
2C0
100
AcDbEntity
  8
0
100
AcDbLine
 62
7
  6
CONTINUOUS
 10
149.3814186802
 20
336.7380389853
 30
0.0
 11
149.3814186802
 21
342.9380389853
 31
0.0
  0
LINE
  5
2C1
100
AcDbEntity
  8
0
100
AcDbLine
 62
7
  6
CONTINUOUS
 10
151.5814186802
 20
336.7380389853
 30
0.0
 11
151.5814186802
 21
342.9380389853
 31
0.0
  0
LINE
  5
2C2
100
AcDbEntity
  8
0
100
AcDbLine
 62
7
  6
CONTINUOUS
 10
164.4814186802
 20
292.7380389853
 30
0.0
 11
164.4814186802
 21
347.7380389853
 31
0.0
  0
LINE
  5
2C3
100
AcDbEntity
  8
0
100
AcDbLine
 62
7
  6
CONTINUOUS
 10
-533.9035798918
 20
161.3435366621
 30
0.0
 11
-533.9035798918
 21
216.3435366621
 31
0.0
  0
LINE
  5
2C4
100
AcDbEntity
  8
0
100
AcDbLine
 62
7
  6
CONTINUOUS
 10
-521.0035798918
 20
205.3435366621
 30
0.0
 11
-521.0035798918
 21
211.5435366621
 31
0.0
  0
LINE
  5
2C5
100
AcDbEntity
  8
0
100
AcDbLine
 62
7
  6
CONTINUOUS
 10
-518.8035798918
 20
205.3435366621
 30
0.0
 11
-518.8035798918
 21
211.5435366621
 31
0.0
  0
LINE
  5
2C6
100
AcDbEntity
  8
0
100
AcDbLine
 62
7
  6
CONTINUOUS
 10
-511.0035798918
 20
205.3435366621
 30
0.0
 11
-511.0035798918
 21
211.5435366621
 31
0.0
  0
LINE
  5
2C7
100
AcDbEntity
  8
0
100
AcDbLine
 62
7
  6
CONTINUOUS
 10
-508.8035798918
 20
205.3435366621
 30
0.0
 11
-508.8035798918
 21
211.5435366621
 31
0.0
  0
LINE
  5
2C8
100
AcDbEntity
  8
0
100
AcDbLine
 62
7
  6
CONTINUOUS
 10
-501.0035798918
 20
205.3435366621
 30
0.0
 11
-501.0035798918
 21
211.5435366621
 31
0.0
  0
LINE
  5
2C9
100
AcDbEntity
  8
0
100
AcDbLine
 62
7
  6
CONTINUOUS
 10
-498.8035798918
 20
205.3435366621
 30
0.0
 11
-498.8035798918
 21
211.5435366621
 31
0.0
  0
LINE
  5
2CA
100
AcDbEntity
  8
0
100
AcDbLine
 62
7
  6
CONTINUOUS
 10
-491.0035798918
 20
205.3435366621
 30
0.0
 11
-491.0035798918
 21
211.5435366621
 31
0.0
  0
LINE
  5
2CB
100
AcDbEntity
  8
0
100
AcDbLine
 62
7
  6
CONTINUOUS
 10
-488.8035798918
 20
205.3435366621
 30
0.0
 11
-488.8035798918
 21
211.5435366621
 31
0.0
  0
LINE
  5
2CC
100
AcDbEntity
  8
0
100
AcDbLine
 62
7
  6
CONTINUOUS
 10
-481.0035798918
 20
205.3435366621
 30
0.0
 11
-481.0035798918
 21
211.5435366621
 31
0.0
  0
LINE
  5
2CD
100
AcDbEntity
  8
0
100
AcDbLine
 62
7
  6
CONTINUOUS
 10
-478.8035798918
 20
205.3435366621
 30
0.0
 11
-478.8035798918
 21
211.5435366621
 31
0.0
  0
LINE
  5
2CE
100
AcDbEntity
  8
0
100
AcDbLine
 62
7
  6
CONTINUOUS
 10
-365.9035798918
 20
161.3435366621
 30
0.0
 11
-533.9035798918
 21
161.3435366621
 31
0.0
  0
LINE
  5
2CF
100
AcDbEntity
  8
0
100
AcDbLine
 62
7
  6
CONTINUOUS
 10
-471.0035798918
 20
205.3435366621
 30
0.0
 11
-471.0035798918
 21
211.5435366621
 31
0.0
  0
LINE
  5
2D0
100
AcDbEntity
  8
0
100
AcDbLine
 62
7
  6
CONTINUOUS
 10
-468.8035798918
 20
205.3435366621
 30
0.0
 11
-468.8035798918
 21
211.5435366621
 31
0.0
  0
LINE
  5
2D1
100
AcDbEntity
  8
0
100
AcDbLine
 62
7
  6
CONTINUOUS
 10
-461.0035798918
 20
205.3435366621
 30
0.0
 11
-461.0035798918
 21
211.5435366621
 31
0.0
  0
LINE
  5
2D2
100
AcDbEntity
  8
0
100
AcDbLine
 62
7
  6
CONTINUOUS
 10
-458.8035798918
 20
205.3435366621
 30
0.0
 11
-458.8035798918
 21
211.5435366621
 31
0.0
  0
LINE
  5
2D3
100
AcDbEntity
  8
0
100
AcDbLine
 62
7
  6
CONTINUOUS
 10
-409.6035798918
 20
180.0435366621
 30
0.0
 11
-418.2035798918
 21
180.0435366621
 31
0.0
  0
LINE
  5
2D4
100
AcDbEntity
  8
0
100
AcDbLine
 62
7
  6
CONTINUOUS
 10
-478.2035798918
 20
182.2935366621
 30
0.0
 11
-499.6035798918
 21
182.2935366621
 31
0.0
  0
LINE
  5
2D5
100
AcDbEntity
  8
0
100
AcDbLine
 62
7
  6
CONTINUOUS
 10
-418.2035798918
 20
182.6435366621
 30
0.0
 11
-409.6035798918
 21
182.6435366621
 31
0.0
  0
LINE
  5
2D6
100
AcDbEntity
  8
0
100
AcDbLine
 62
7
  6
CONTINUOUS
 10
-451.0035798918
 20
205.3435366621
 30
0.0
 11
-451.0035798918
 21
211.5435366621
 31
0.0
  0
LINE
  5
2D7
100
AcDbEntity
  8
0
100
AcDbLine
 62
7
  6
CONTINUOUS
 10
-448.8035798918
 20
205.3435366621
 30
0.0
 11
-448.8035798918
 21
211.5435366621
 31
0.0
  0
LINE
  5
2D8
100
AcDbEntity
  8
0
100
AcDbLine
 62
7
  6
CONTINUOUS
 10
-499.6035798918
 20
192.8935366621
 30
0.0
 11
-478.2035798918
 21
192.8935366621
 31
0.0
  0
LINE
  5
2D9
100
AcDbEntity
  8
0
100
AcDbLine
 62
7
  6
CONTINUOUS
 10
-441.0035798918
 20
205.3435366621
 30
0.0
 11
-441.0035798918
 21
211.5435366621
 31
0.0
  0
LINE
  5
2DA
100
AcDbEntity
  8
0
100
AcDbLine
 62
7
  6
CONTINUOUS
 10
-438.8035798918
 20
205.3435366621
 30
0.0
 11
-438.8035798918
 21
211.5435366621
 31
0.0
  0
LINE
  5
2DB
100
AcDbEntity
  8
0
100
AcDbLine
 62
7
  6
CONTINUOUS
 10
-521.0035798918
 20
205.3435366621
 30
0.0
 11
-518.8035798918
 21
205.3435366621
 31
0.0
  0
LINE
  5
2DC
100
AcDbEntity
  8
0
100
AcDbLine
 62
7
  6
CONTINUOUS
 10
-511.0035798918
 20
205.3435366621
 30
0.0
 11
-508.8035798918
 21
205.3435366621
 31
0.0
  0
LINE
  5
2DD
100
AcDbEntity
  8
0
100
AcDbLine
 62
7
  6
CONTINUOUS
 10
-501.0035798918
 20
205.3435366621
 30
0.0
 11
-498.8035798918
 21
205.3435366621
 31
0.0
  0
LINE
  5
2DE
100
AcDbEntity
  8
0
100
AcDbLine
 62
7
  6
CONTINUOUS
 10
-491.0035798918
 20
205.3435366621
 30
0.0
 11
-488.8035798918
 21
205.3435366621
 31
0.0
  0
LINE
  5
2DF
100
AcDbEntity
  8
0
100
AcDbLine
 62
7
  6
CONTINUOUS
 10
-481.0035798918
 20
205.3435366621
 30
0.0
 11
-478.8035798918
 21
205.3435366621
 31
0.0
  0
LINE
  5
2E0
100
AcDbEntity
  8
0
100
AcDbLine
 62
7
  6
CONTINUOUS
 10
-471.0035798918
 20
205.3435366621
 30
0.0
 11
-468.8035798918
 21
205.3435366621
 31
0.0
  0
LINE
  5
2E1
100
AcDbEntity
  8
0
100
AcDbLine
 62
7
  6
CONTINUOUS
 10
-461.0035798918
 20
205.3435366621
 30
0.0
 11
-458.8035798918
 21
205.3435366621
 31
0.0
  0
LINE
  5
2E2
100
AcDbEntity
  8
0
100
AcDbLine
 62
7
  6
CONTINUOUS
 10
-451.0035798918
 20
205.3435366621
 30
0.0
 11
-448.8035798918
 21
205.3435366621
 31
0.0
  0
LINE
  5
2E3
100
AcDbEntity
  8
0
100
AcDbLine
 62
7
  6
CONTINUOUS
 10
-441.0035798918
 20
205.3435366621
 30
0.0
 11
-438.8035798918
 21
205.3435366621
 31
0.0
  0
LINE
  5
2E4
100
AcDbEntity
  8
0
100
AcDbLine
 62
7
  6
CONTINUOUS
 10
-431.0035798918
 20
205.3435366621
 30
0.0
 11
-428.8035798918
 21
205.3435366621
 31
0.0
  0
LINE
  5
2E5
100
AcDbEntity
  8
0
100
AcDbLine
 62
7
  6
CONTINUOUS
 10
-421.0035798918
 20
205.3435366621
 30
0.0
 11
-418.8035798918
 21
205.3435366621
 31
0.0
  0
LINE
  5
2E6
100
AcDbEntity
  8
0
100
AcDbLine
 62
7
  6
CONTINUOUS
 10
-411.0035798918
 20
205.3435366621
 30
0.0
 11
-408.8035798918
 21
205.3435366621
 31
0.0
  0
LINE
  5
2E7
100
AcDbEntity
  8
0
100
AcDbLine
 62
7
  6
CONTINUOUS
 10
-401.0035798918
 20
205.3435366621
 30
0.0
 11
-398.8035798918
 21
205.3435366621
 31
0.0
  0
LINE
  5
2E8
100
AcDbEntity
  8
0
100
AcDbLine
 62
7
  6
CONTINUOUS
 10
-391.0035798918
 20
205.3435366621
 30
0.0
 11
-388.8035798918
 21
205.3435366621
 31
0.0
  0
LINE
  5
2E9
100
AcDbEntity
  8
0
100
AcDbLine
 62
7
  6
CONTINUOUS
 10
-381.0035798918
 20
205.3435366621
 30
0.0
 11
-378.8035798918
 21
205.3435366621
 31
0.0
  0
LINE
  5
2EA
100
AcDbEntity
  8
0
100
AcDbLine
 62
7
  6
CONTINUOUS
 10
-431.0035798918
 20
205.3435366621
 30
0.0
 11
-431.0035798918
 21
211.5435366621
 31
0.0
  0
LINE
  5
2EB
100
AcDbEntity
  8
0
100
AcDbLine
 62
7
  6
CONTINUOUS
 10
-428.8035798918
 20
205.3435366621
 30
0.0
 11
-428.8035798918
 21
211.5435366621
 31
0.0
  0
LINE
  5
2EC
100
AcDbEntity
  8
0
100
AcDbLine
 62
7
  6
CONTINUOUS
 10
-378.8035798918
 20
211.5435366621
 30
0.0
 11
-381.0035798918
 21
211.5435366621
 31
0.0
  0
LINE
  5
2ED
100
AcDbEntity
  8
0
100
AcDbLine
 62
7
  6
CONTINUOUS
 10
-388.8035798918
 20
211.5435366621
 30
0.0
 11
-391.0035798918
 21
211.5435366621
 31
0.0
  0
LINE
  5
2EE
100
AcDbEntity
  8
0
100
AcDbLine
 62
7
  6
CONTINUOUS
 10
-398.8035798918
 20
211.5435366621
 30
0.0
 11
-401.0035798918
 21
211.5435366621
 31
0.0
  0
LINE
  5
2EF
100
AcDbEntity
  8
0
100
AcDbLine
 62
7
  6
CONTINUOUS
 10
-408.8035798918
 20
211.5435366621
 30
0.0
 11
-411.0035798918
 21
211.5435366621
 31
0.0
  0
LINE
  5
2F0
100
AcDbEntity
  8
0
100
AcDbLine
 62
7
  6
CONTINUOUS
 10
-418.8035798918
 20
211.5435366621
 30
0.0
 11
-421.0035798918
 21
211.5435366621
 31
0.0
  0
LINE
  5
2F1
100
AcDbEntity
  8
0
100
AcDbLine
 62
7
  6
CONTINUOUS
 10
-428.8035798918
 20
211.5435366621
 30
0.0
 11
-431.0035798918
 21
211.5435366621
 31
0.0
  0
LINE
  5
2F2
100
AcDbEntity
  8
0
100
AcDbLine
 62
7
  6
CONTINUOUS
 10
-438.8035798918
 20
211.5435366621
 30
0.0
 11
-441.0035798918
 21
211.5435366621
 31
0.0
  0
LINE
  5
2F3
100
AcDbEntity
  8
0
100
AcDbLine
 62
7
  6
CONTINUOUS
 10
-448.8035798918
 20
211.5435366621
 30
0.0
 11
-451.0035798918
 21
211.5435366621
 31
0.0
  0
LINE
  5
2F4
100
AcDbEntity
  8
0
100
AcDbLine
 62
7
  6
CONTINUOUS
 10
-458.8035798918
 20
211.5435366621
 30
0.0
 11
-461.0035798918
 21
211.5435366621
 31
0.0
  0
LINE
  5
2F5
100
AcDbEntity
  8
0
100
AcDbLine
 62
7
  6
CONTINUOUS
 10
-468.8035798918
 20
211.5435366621
 30
0.0
 11
-471.0035798918
 21
211.5435366621
 31
0.0
  0
LINE
  5
2F6
100
AcDbEntity
  8
0
100
AcDbLine
 62
7
  6
CONTINUOUS
 10
-478.8035798918
 20
211.5435366621
 30
0.0
 11
-481.0035798918
 21
211.5435366621
 31
0.0
  0
LINE
  5
2F7
100
AcDbEntity
  8
0
100
AcDbLine
 62
7
  6
CONTINUOUS
 10
-488.8035798918
 20
211.5435366621
 30
0.0
 11
-491.0035798918
 21
211.5435366621
 31
0.0
  0
LINE
  5
2F8
100
AcDbEntity
  8
0
100
AcDbLine
 62
7
  6
CONTINUOUS
 10
-498.8035798918
 20
211.5435366621
 30
0.0
 11
-501.0035798918
 21
211.5435366621
 31
0.0
  0
LINE
  5
2F9
100
AcDbEntity
  8
0
100
AcDbLine
 62
7
  6
CONTINUOUS
 10
-508.8035798918
 20
211.5435366621
 30
0.0
 11
-511.0035798918
 21
211.5435366621
 31
0.0
  0
LINE
  5
2FA
100
AcDbEntity
  8
0
100
AcDbLine
 62
7
  6
CONTINUOUS
 10
-518.8035798918
 20
211.5435366621
 30
0.0
 11
-521.0035798918
 21
211.5435366621
 31
0.0
  0
LINE
  5
2FB
100
AcDbEntity
  8
0
100
AcDbLine
 62
7
  6
CONTINUOUS
 10
-421.0035798918
 20
205.3435366621
 30
0.0
 11
-421.0035798918
 21
211.5435366621
 31
0.0
  0
LINE
  5
2FC
100
AcDbEntity
  8
0
100
AcDbLine
 62
7
  6
CONTINUOUS
 10
-533.9035798918
 20
216.3435366621
 30
0.0
 11
-365.9035798918
 21
216.3435366621
 31
0.0
  0
LINE
  5
2FD
100
AcDbEntity
  8
0
100
AcDbLine
 62
7
  6
CONTINUOUS
 10
-418.8035798918
 20
205.3435366621
 30
0.0
 11
-418.8035798918
 21
211.5435366621
 31
0.0
  0
LINE
  5
2FE
100
AcDbEntity
  8
0
100
AcDbLine
 62
7
  6
CONTINUOUS
 10
-418.2035798918
 20
180.0435366621
 30
0.0
 11
-418.2035798918
 21
182.6435366621
 31
0.0
  0
LINE
  5
2FF
100
AcDbEntity
  8
0
100
AcDbLine
 62
7
  6
CONTINUOUS
 10
-411.0035798918
 20
205.3435366621
 30
0.0
 11
-411.0035798918
 21
211.5435366621
 31
0.0
  0
LINE
  5
300
100
AcDbEntity
  8
0
100
AcDbLine
 62
7
  6
CONTINUOUS
 10
-409.6035798918
 20
182.6435366621
 30
0.0
 11
-409.6035798918
 21
180.0435366621
 31
0.0
  0
LINE
  5
301
100
AcDbEntity
  8
0
100
AcDbLine
 62
7
  6
CONTINUOUS
 10
-408.8035798918
 20
205.3435366621
 30
0.0
 11
-408.8035798918
 21
211.5435366621
 31
0.0
  0
LINE
  5
302
100
AcDbEntity
  8
0
100
AcDbLine
 62
7
  6
CONTINUOUS
 10
-401.0035798918
 20
205.3435366621
 30
0.0
 11
-401.0035798918
 21
211.5435366621
 31
0.0
  0
LINE
  5
303
100
AcDbEntity
  8
0
100
AcDbLine
 62
7
  6
CONTINUOUS
 10
-398.8035798918
 20
205.3435366621
 30
0.0
 11
-398.8035798918
 21
211.5435366621
 31
0.0
  0
LINE
  5
304
100
AcDbEntity
  8
0
100
AcDbLine
 62
7
  6
CONTINUOUS
 10
-391.0035798918
 20
205.3435366621
 30
0.0
 11
-391.0035798918
 21
211.5435366621
 31
0.0
  0
LINE
  5
305
100
AcDbEntity
  8
0
100
AcDbLine
 62
7
  6
CONTINUOUS
 10
-388.8035798918
 20
205.3435366621
 30
0.0
 11
-388.8035798918
 21
211.5435366621
 31
0.0
  0
LINE
  5
306
100
AcDbEntity
  8
0
100
AcDbLine
 62
7
  6
CONTINUOUS
 10
-381.0035798918
 20
205.3435366621
 30
0.0
 11
-381.0035798918
 21
211.5435366621
 31
0.0
  0
LINE
  5
307
100
AcDbEntity
  8
0
100
AcDbLine
 62
7
  6
CONTINUOUS
 10
-378.8035798918
 20
205.3435366621
 30
0.0
 11
-378.8035798918
 21
211.5435366621
 31
0.0
  0
LINE
  5
308
100
AcDbEntity
  8
0
100
AcDbLine
 62
7
  6
CONTINUOUS
 10
-365.9035798918
 20
216.3435366621
 30
0.0
 11
-365.9035798918
 21
161.3435366621
 31
0.0
  0
LINE
  5
309
100
AcDbEntity
  8
0
100
AcDbLine
 62
7
  6
CONTINUOUS
 10
-161.9674187515
 20
284.3045352904
 30
0.0
 11
-161.9674187515
 21
229.3045352904
 31
0.0
  0
LINE
  5
30A
100
AcDbEntity
  8
0
100
AcDbLine
 62
7
  6
CONTINUOUS
 10
-149.0674187515
 20
273.3045352904
 30
0.0
 11
-149.0674187515
 21
279.5045352904
 31
0.0
  0
LINE
  5
30B
100
AcDbEntity
  8
0
100
AcDbLine
 62
7
  6
CONTINUOUS
 10
-146.8674187515
 20
273.3045352904
 30
0.0
 11
-146.8674187515
 21
279.5045352904
 31
0.0
  0
LINE
  5
30C
100
AcDbEntity
  8
0
100
AcDbLine
 62
7
  6
CONTINUOUS
 10
-139.0674187515
 20
273.3045352904
 30
0.0
 11
-139.0674187515
 21
279.5045352904
 31
0.0
  0
LINE
  5
30D
100
AcDbEntity
  8
0
100
AcDbLine
 62
7
  6
CONTINUOUS
 10
-136.8674187515
 20
273.3045352904
 30
0.0
 11
-136.8674187515
 21
279.5045352904
 31
0.0
  0
LINE
  5
30E
100
AcDbEntity
  8
0
100
AcDbLine
 62
7
  6
CONTINUOUS
 10
-129.0674187515
 20
273.3045352904
 30
0.0
 11
-129.0674187515
 21
279.5045352904
 31
0.0
  0
LINE
  5
30F
100
AcDbEntity
  8
0
100
AcDbLine
 62
7
  6
CONTINUOUS
 10
-126.8674187515
 20
273.3045352904
 30
0.0
 11
-126.8674187515
 21
279.5045352904
 31
0.0
  0
LINE
  5
310
100
AcDbEntity
  8
0
100
AcDbLine
 62
7
  6
CONTINUOUS
 10
-119.0674187515
 20
273.3045352904
 30
0.0
 11
-119.0674187515
 21
279.5045352904
 31
0.0
  0
LINE
  5
311
100
AcDbEntity
  8
0
100
AcDbLine
 62
7
  6
CONTINUOUS
 10
-116.8674187515
 20
273.3045352904
 30
0.0
 11
-116.8674187515
 21
279.5045352904
 31
0.0
  0
LINE
  5
312
100
AcDbEntity
  8
0
100
AcDbLine
 62
7
  6
CONTINUOUS
 10
-109.0674187515
 20
273.3045352904
 30
0.0
 11
-109.0674187515
 21
279.5045352904
 31
0.0
  0
LINE
  5
313
100
AcDbEntity
  8
0
100
AcDbLine
 62
7
  6
CONTINUOUS
 10
-106.8674187515
 20
273.3045352904
 30
0.0
 11
-106.8674187515
 21
279.5045352904
 31
0.0
  0
LINE
  5
314
100
AcDbEntity
  8
0
100
AcDbLine
 62
7
  6
CONTINUOUS
 10
-99.0674187515
 20
273.3045352904
 30
0.0
 11
-99.0674187515
 21
279.5045352904
 31
0.0
  0
LINE
  5
315
100
AcDbEntity
  8
0
100
AcDbLine
 62
7
  6
CONTINUOUS
 10
-96.8674187515
 20
273.3045352904
 30
0.0
 11
-96.8674187515
 21
279.5045352904
 31
0.0
  0
LINE
  5
316
100
AcDbEntity
  8
0
100
AcDbLine
 62
7
  6
CONTINUOUS
 10
-89.0674187515
 20
273.3045352904
 30
0.0
 11
-89.0674187515
 21
279.5045352904
 31
0.0
  0
LINE
  5
317
100
AcDbEntity
  8
0
100
AcDbLine
 62
7
  6
CONTINUOUS
 10
-86.8674187515
 20
273.3045352904
 30
0.0
 11
-86.8674187515
 21
279.5045352904
 31
0.0
  0
LINE
  5
318
100
AcDbEntity
  8
0
100
AcDbLine
 62
7
  6
CONTINUOUS
 10
-79.0674187515
 20
273.3045352904
 30
0.0
 11
-79.0674187515
 21
279.5045352904
 31
0.0
  0
LINE
  5
319
100
AcDbEntity
  8
0
100
AcDbLine
 62
7
  6
CONTINUOUS
 10
-76.8674187515
 20
273.3045352904
 30
0.0
 11
-76.8674187515
 21
279.5045352904
 31
0.0
  0
LINE
  5
31A
100
AcDbEntity
  8
0
100
AcDbLine
 62
7
  6
CONTINUOUS
 10
-69.0674187515
 20
273.3045352904
 30
0.0
 11
-69.0674187515
 21
279.5045352904
 31
0.0
  0
LINE
  5
31B
100
AcDbEntity
  8
0
100
AcDbLine
 62
7
  6
CONTINUOUS
 10
-66.8674187515
 20
273.3045352904
 30
0.0
 11
-66.8674187515
 21
279.5045352904
 31
0.0
  0
LINE
  5
31C
100
AcDbEntity
  8
0
100
AcDbLine
 62
7
  6
CONTINUOUS
 10
-59.0674187515
 20
273.3045352904
 30
0.0
 11
-59.0674187515
 21
279.5045352904
 31
0.0
  0
LINE
  5
31D
100
AcDbEntity
  8
0
100
AcDbLine
 62
7
  6
CONTINUOUS
 10
-56.8674187515
 20
273.3045352904
 30
0.0
 11
-56.8674187515
 21
279.5045352904
 31
0.0
  0
LINE
  5
31E
100
AcDbEntity
  8
0
100
AcDbLine
 62
7
  6
CONTINUOUS
 10
-49.0674187515
 20
273.3045352904
 30
0.0
 11
-49.0674187515
 21
279.5045352904
 31
0.0
  0
LINE
  5
31F
100
AcDbEntity
  8
0
100
AcDbLine
 62
7
  6
CONTINUOUS
 10
-46.8674187515
 20
273.3045352904
 30
0.0
 11
-46.8674187515
 21
279.5045352904
 31
0.0
  0
LINE
  5
320
100
AcDbEntity
  8
0
100
AcDbLine
 62
7
  6
CONTINUOUS
 10
-39.0674187515
 20
273.3045352904
 30
0.0
 11
-39.0674187515
 21
279.5045352904
 31
0.0
  0
LINE
  5
321
100
AcDbEntity
  8
0
100
AcDbLine
 62
7
  6
CONTINUOUS
 10
-36.8674187515
 20
273.3045352904
 30
0.0
 11
-36.8674187515
 21
279.5045352904
 31
0.0
  0
LINE
  5
322
100
AcDbEntity
  8
0
100
AcDbLine
 62
7
  6
CONTINUOUS
 10
-29.0674187515
 20
273.3045352904
 30
0.0
 11
-29.0674187515
 21
279.5045352904
 31
0.0
  0
LINE
  5
323
100
AcDbEntity
  8
0
100
AcDbLine
 62
7
  6
CONTINUOUS
 10
-26.8674187515
 20
273.3045352904
 30
0.0
 11
-26.8674187515
 21
279.5045352904
 31
0.0
  0
LINE
  5
324
100
AcDbEntity
  8
0
100
AcDbLine
 62
7
  6
CONTINUOUS
 10
-19.0674187515
 20
273.3045352904
 30
0.0
 11
-19.0674187515
 21
279.5045352904
 31
0.0
  0
LINE
  5
325
100
AcDbEntity
  8
0
100
AcDbLine
 62
7
  6
CONTINUOUS
 10
-161.9674187515
 20
229.3045352904
 30
0.0
 11
166.0325812485
 21
229.3045352904
 31
0.0
  0
LINE
  5
326
100
AcDbEntity
  8
0
100
AcDbLine
 62
7
  6
CONTINUOUS
 10
-16.8674187515
 20
273.3045352904
 30
0.0
 11
-16.8674187515
 21
279.5045352904
 31
0.0
  0
LINE
  5
327
100
AcDbEntity
  8
0
100
AcDbLine
 62
7
  6
CONTINUOUS
 10
-9.0674187515
 20
273.3045352904
 30
0.0
 11
-9.0674187515
 21
279.5045352904
 31
0.0
  0
LINE
  5
328
100
AcDbEntity
  8
0
100
AcDbLine
 62
7
  6
CONTINUOUS
 10
-6.8674187515
 20
273.3045352904
 30
0.0
 11
-6.8674187515
 21
279.5045352904
 31
0.0
  0
LINE
  5
329
100
AcDbEntity
  8
0
100
AcDbLine
 62
7
  6
CONTINUOUS
 10
0.9325812485
 20
273.3045352904
 30
0.0
 11
0.9325812485
 21
279.5045352904
 31
0.0
  0
LINE
  5
32A
100
AcDbEntity
  8
0
100
AcDbLine
 62
7
  6
CONTINUOUS
 10
3.1325812485
 20
273.3045352904
 30
0.0
 11
3.1325812485
 21
279.5045352904
 31
0.0
  0
LINE
  5
32B
100
AcDbEntity
  8
0
100
AcDbLine
 62
7
  6
CONTINUOUS
 10
10.9325812485
 20
273.3045352904
 30
0.0
 11
10.9325812485
 21
279.5045352904
 31
0.0
  0
LINE
  5
32C
100
AcDbEntity
  8
0
100
AcDbLine
 62
7
  6
CONTINUOUS
 10
13.1325812485
 20
273.3045352904
 30
0.0
 11
13.1325812485
 21
279.5045352904
 31
0.0
  0
LINE
  5
32D
100
AcDbEntity
  8
0
100
AcDbLine
 62
7
  6
CONTINUOUS
 10
20.9325812485
 20
273.3045352904
 30
0.0
 11
20.9325812485
 21
279.5045352904
 31
0.0
  0
LINE
  5
32E
100
AcDbEntity
  8
0
100
AcDbLine
 62
7
  6
CONTINUOUS
 10
23.1325812485
 20
273.3045352904
 30
0.0
 11
23.1325812485
 21
279.5045352904
 31
0.0
  0
LINE
  5
32F
100
AcDbEntity
  8
0
100
AcDbLine
 62
7
  6
CONTINUOUS
 10
-149.0674187515
 20
273.3045352904
 30
0.0
 11
-146.8674187515
 21
273.3045352904
 31
0.0
  0
LINE
  5
330
100
AcDbEntity
  8
0
100
AcDbLine
 62
7
  6
CONTINUOUS
 10
-139.0674187515
 20
273.3045352904
 30
0.0
 11
-136.8674187515
 21
273.3045352904
 31
0.0
  0
LINE
  5
331
100
AcDbEntity
  8
0
100
AcDbLine
 62
7
  6
CONTINUOUS
 10
-129.0674187515
 20
273.3045352904
 30
0.0
 11
-126.8674187515
 21
273.3045352904
 31
0.0
  0
LINE
  5
332
100
AcDbEntity
  8
0
100
AcDbLine
 62
7
  6
CONTINUOUS
 10
-119.0674187515
 20
273.3045352904
 30
0.0
 11
-116.8674187515
 21
273.3045352904
 31
0.0
  0
LINE
  5
333
100
AcDbEntity
  8
0
100
AcDbLine
 62
7
  6
CONTINUOUS
 10
-109.0674187515
 20
273.3045352904
 30
0.0
 11
-106.8674187515
 21
273.3045352904
 31
0.0
  0
LINE
  5
334
100
AcDbEntity
  8
0
100
AcDbLine
 62
7
  6
CONTINUOUS
 10
-99.0674187515
 20
273.3045352904
 30
0.0
 11
-96.8674187515
 21
273.3045352904
 31
0.0
  0
LINE
  5
335
100
AcDbEntity
  8
0
100
AcDbLine
 62
7
  6
CONTINUOUS
 10
-89.0674187515
 20
273.3045352904
 30
0.0
 11
-86.8674187515
 21
273.3045352904
 31
0.0
  0
LINE
  5
336
100
AcDbEntity
  8
0
100
AcDbLine
 62
7
  6
CONTINUOUS
 10
-79.0674187515
 20
273.3045352904
 30
0.0
 11
-76.8674187515
 21
273.3045352904
 31
0.0
  0
LINE
  5
337
100
AcDbEntity
  8
0
100
AcDbLine
 62
7
  6
CONTINUOUS
 10
-69.0674187515
 20
273.3045352904
 30
0.0
 11
-66.8674187515
 21
273.3045352904
 31
0.0
  0
LINE
  5
338
100
AcDbEntity
  8
0
100
AcDbLine
 62
7
  6
CONTINUOUS
 10
-59.0674187515
 20
273.3045352904
 30
0.0
 11
-56.8674187515
 21
273.3045352904
 31
0.0
  0
LINE
  5
339
100
AcDbEntity
  8
0
100
AcDbLine
 62
7
  6
CONTINUOUS
 10
-49.0674187515
 20
273.3045352904
 30
0.0
 11
-46.8674187515
 21
273.3045352904
 31
0.0
  0
LINE
  5
33A
100
AcDbEntity
  8
0
100
AcDbLine
 62
7
  6
CONTINUOUS
 10
-39.0674187515
 20
273.3045352904
 30
0.0
 11
-36.8674187515
 21
273.3045352904
 31
0.0
  0
LINE
  5
33B
100
AcDbEntity
  8
0
100
AcDbLine
 62
7
  6
CONTINUOUS
 10
-29.0674187515
 20
273.3045352904
 30
0.0
 11
-26.8674187515
 21
273.3045352904
 31
0.0
  0
LINE
  5
33C
100
AcDbEntity
  8
0
100
AcDbLine
 62
7
  6
CONTINUOUS
 10
-19.0674187515
 20
273.3045352904
 30
0.0
 11
-16.8674187515
 21
273.3045352904
 31
0.0
  0
LINE
  5
33D
100
AcDbEntity
  8
0
100
AcDbLine
 62
7
  6
CONTINUOUS
 10
-9.0674187515
 20
273.3045352904
 30
0.0
 11
-6.8674187515
 21
273.3045352904
 31
0.0
  0
LINE
  5
33E
100
AcDbEntity
  8
0
100
AcDbLine
 62
7
  6
CONTINUOUS
 10
0.9325812485
 20
273.3045352904
 30
0.0
 11
3.1325812485
 21
273.3045352904
 31
0.0
  0
LINE
  5
33F
100
AcDbEntity
  8
0
100
AcDbLine
 62
7
  6
CONTINUOUS
 10
10.9325812485
 20
273.3045352904
 30
0.0
 11
13.1325812485
 21
273.3045352904
 31
0.0
  0
LINE
  5
340
100
AcDbEntity
  8
0
100
AcDbLine
 62
7
  6
CONTINUOUS
 10
20.9325812485
 20
273.3045352904
 30
0.0
 11
23.1325812485
 21
273.3045352904
 31
0.0
  0
LINE
  5
341
100
AcDbEntity
  8
0
100
AcDbLine
 62
7
  6
CONTINUOUS
 10
30.9325812485
 20
273.3045352904
 30
0.0
 11
33.1325812485
 21
273.3045352904
 31
0.0
  0
LINE
  5
342
100
AcDbEntity
  8
0
100
AcDbLine
 62
7
  6
CONTINUOUS
 10
40.9325812485
 20
273.3045352904
 30
0.0
 11
43.1325812485
 21
273.3045352904
 31
0.0
  0
LINE
  5
343
100
AcDbEntity
  8
0
100
AcDbLine
 62
7
  6
CONTINUOUS
 10
50.9325812485
 20
273.3045352904
 30
0.0
 11
53.1325812485
 21
273.3045352904
 31
0.0
  0
LINE
  5
344
100
AcDbEntity
  8
0
100
AcDbLine
 62
7
  6
CONTINUOUS
 10
60.9325812485
 20
273.3045352904
 30
0.0
 11
63.1325812485
 21
273.3045352904
 31
0.0
  0
LINE
  5
345
100
AcDbEntity
  8
0
100
AcDbLine
 62
7
  6
CONTINUOUS
 10
70.9325812485
 20
273.3045352904
 30
0.0
 11
73.1325812485
 21
273.3045352904
 31
0.0
  0
LINE
  5
346
100
AcDbEntity
  8
0
100
AcDbLine
 62
7
  6
CONTINUOUS
 10
80.9325812485
 20
273.3045352904
 30
0.0
 11
83.1325812485
 21
273.3045352904
 31
0.0
  0
LINE
  5
347
100
AcDbEntity
  8
0
100
AcDbLine
 62
7
  6
CONTINUOUS
 10
90.9325812485
 20
273.3045352904
 30
0.0
 11
93.1325812485
 21
273.3045352904
 31
0.0
  0
LINE
  5
348
100
AcDbEntity
  8
0
100
AcDbLine
 62
7
  6
CONTINUOUS
 10
100.9325812485
 20
273.3045352904
 30
0.0
 11
103.1325812485
 21
273.3045352904
 31
0.0
  0
LINE
  5
349
100
AcDbEntity
  8
0
100
AcDbLine
 62
7
  6
CONTINUOUS
 10
110.9325812485
 20
273.3045352904
 30
0.0
 11
113.1325812485
 21
273.3045352904
 31
0.0
  0
LINE
  5
34A
100
AcDbEntity
  8
0
100
AcDbLine
 62
7
  6
CONTINUOUS
 10
120.9325812485
 20
273.3045352904
 30
0.0
 11
123.1325812485
 21
273.3045352904
 31
0.0
  0
LINE
  5
34B
100
AcDbEntity
  8
0
100
AcDbLine
 62
7
  6
CONTINUOUS
 10
130.9325812485
 20
273.3045352904
 30
0.0
 11
133.1325812485
 21
273.3045352904
 31
0.0
  0
LINE
  5
34C
100
AcDbEntity
  8
0
100
AcDbLine
 62
7
  6
CONTINUOUS
 10
140.9325812485
 20
273.3045352904
 30
0.0
 11
143.1325812485
 21
273.3045352904
 31
0.0
  0
LINE
  5
34D
100
AcDbEntity
  8
0
100
AcDbLine
 62
7
  6
CONTINUOUS
 10
150.9325812485
 20
273.3045352904
 30
0.0
 11
153.1325812485
 21
273.3045352904
 31
0.0
  0
LINE
  5
34E
100
AcDbEntity
  8
0
100
AcDbLine
 62
7
  6
CONTINUOUS
 10
-149.0674187515
 20
279.5045352904
 30
0.0
 11
-146.8674187515
 21
279.5045352904
 31
0.0
  0
LINE
  5
34F
100
AcDbEntity
  8
0
100
AcDbLine
 62
7
  6
CONTINUOUS
 10
-139.0674187515
 20
279.5045352904
 30
0.0
 11
-136.8674187515
 21
279.5045352904
 31
0.0
  0
LINE
  5
350
100
AcDbEntity
  8
0
100
AcDbLine
 62
7
  6
CONTINUOUS
 10
-129.0674187515
 20
279.5045352904
 30
0.0
 11
-126.8674187515
 21
279.5045352904
 31
0.0
  0
LINE
  5
351
100
AcDbEntity
  8
0
100
AcDbLine
 62
7
  6
CONTINUOUS
 10
-119.0674187515
 20
279.5045352904
 30
0.0
 11
-116.8674187515
 21
279.5045352904
 31
0.0
  0
LINE
  5
352
100
AcDbEntity
  8
0
100
AcDbLine
 62
7
  6
CONTINUOUS
 10
-109.0674187515
 20
279.5045352904
 30
0.0
 11
-106.8674187515
 21
279.5045352904
 31
0.0
  0
LINE
  5
353
100
AcDbEntity
  8
0
100
AcDbLine
 62
7
  6
CONTINUOUS
 10
-99.0674187515
 20
279.5045352904
 30
0.0
 11
-96.8674187515
 21
279.5045352904
 31
0.0
  0
LINE
  5
354
100
AcDbEntity
  8
0
100
AcDbLine
 62
7
  6
CONTINUOUS
 10
-89.0674187515
 20
279.5045352904
 30
0.0
 11
-86.8674187515
 21
279.5045352904
 31
0.0
  0
LINE
  5
355
100
AcDbEntity
  8
0
100
AcDbLine
 62
7
  6
CONTINUOUS
 10
-79.0674187515
 20
279.5045352904
 30
0.0
 11
-76.8674187515
 21
279.5045352904
 31
0.0
  0
LINE
  5
356
100
AcDbEntity
  8
0
100
AcDbLine
 62
7
  6
CONTINUOUS
 10
-69.0674187515
 20
279.5045352904
 30
0.0
 11
-66.8674187515
 21
279.5045352904
 31
0.0
  0
LINE
  5
357
100
AcDbEntity
  8
0
100
AcDbLine
 62
7
  6
CONTINUOUS
 10
-59.0674187515
 20
279.5045352904
 30
0.0
 11
-56.8674187515
 21
279.5045352904
 31
0.0
  0
LINE
  5
358
100
AcDbEntity
  8
0
100
AcDbLine
 62
7
  6
CONTINUOUS
 10
-49.0674187515
 20
279.5045352904
 30
0.0
 11
-46.8674187515
 21
279.5045352904
 31
0.0
  0
LINE
  5
359
100
AcDbEntity
  8
0
100
AcDbLine
 62
7
  6
CONTINUOUS
 10
-39.0674187515
 20
279.5045352904
 30
0.0
 11
-36.8674187515
 21
279.5045352904
 31
0.0
  0
LINE
  5
35A
100
AcDbEntity
  8
0
100
AcDbLine
 62
7
  6
CONTINUOUS
 10
-29.0674187515
 20
279.5045352904
 30
0.0
 11
-26.8674187515
 21
279.5045352904
 31
0.0
  0
LINE
  5
35B
100
AcDbEntity
  8
0
100
AcDbLine
 62
7
  6
CONTINUOUS
 10
-19.0674187515
 20
279.5045352904
 30
0.0
 11
-16.8674187515
 21
279.5045352904
 31
0.0
  0
LINE
  5
35C
100
AcDbEntity
  8
0
100
AcDbLine
 62
7
  6
CONTINUOUS
 10
-9.0674187515
 20
279.5045352904
 30
0.0
 11
-6.8674187515
 21
279.5045352904
 31
0.0
  0
LINE
  5
35D
100
AcDbEntity
  8
0
100
AcDbLine
 62
7
  6
CONTINUOUS
 10
0.9325812485
 20
279.5045352904
 30
0.0
 11
3.1325812485
 21
279.5045352904
 31
0.0
  0
LINE
  5
35E
100
AcDbEntity
  8
0
100
AcDbLine
 62
7
  6
CONTINUOUS
 10
10.9325812485
 20
279.5045352904
 30
0.0
 11
13.1325812485
 21
279.5045352904
 31
0.0
  0
LINE
  5
35F
100
AcDbEntity
  8
0
100
AcDbLine
 62
7
  6
CONTINUOUS
 10
20.9325812485
 20
279.5045352904
 30
0.0
 11
23.1325812485
 21
279.5045352904
 31
0.0
  0
LINE
  5
360
100
AcDbEntity
  8
0
100
AcDbLine
 62
7
  6
CONTINUOUS
 10
30.9325812485
 20
279.5045352904
 30
0.0
 11
33.1325812485
 21
279.5045352904
 31
0.0
  0
LINE
  5
361
100
AcDbEntity
  8
0
100
AcDbLine
 62
7
  6
CONTINUOUS
 10
40.9325812485
 20
279.5045352904
 30
0.0
 11
43.1325812485
 21
279.5045352904
 31
0.0
  0
LINE
  5
362
100
AcDbEntity
  8
0
100
AcDbLine
 62
7
  6
CONTINUOUS
 10
50.9325812485
 20
279.5045352904
 30
0.0
 11
53.1325812485
 21
279.5045352904
 31
0.0
  0
LINE
  5
363
100
AcDbEntity
  8
0
100
AcDbLine
 62
7
  6
CONTINUOUS
 10
60.9325812485
 20
279.5045352904
 30
0.0
 11
63.1325812485
 21
279.5045352904
 31
0.0
  0
LINE
  5
364
100
AcDbEntity
  8
0
100
AcDbLine
 62
7
  6
CONTINUOUS
 10
70.9325812485
 20
279.5045352904
 30
0.0
 11
73.1325812485
 21
279.5045352904
 31
0.0
  0
LINE
  5
365
100
AcDbEntity
  8
0
100
AcDbLine
 62
7
  6
CONTINUOUS
 10
80.9325812485
 20
279.5045352904
 30
0.0
 11
83.1325812485
 21
279.5045352904
 31
0.0
  0
LINE
  5
366
100
AcDbEntity
  8
0
100
AcDbLine
 62
7
  6
CONTINUOUS
 10
90.9325812485
 20
279.5045352904
 30
0.0
 11
93.1325812485
 21
279.5045352904
 31
0.0
  0
LINE
  5
367
100
AcDbEntity
  8
0
100
AcDbLine
 62
7
  6
CONTINUOUS
 10
100.9325812485
 20
279.5045352904
 30
0.0
 11
103.1325812485
 21
279.5045352904
 31
0.0
  0
LINE
  5
368
100
AcDbEntity
  8
0
100
AcDbLine
 62
7
  6
CONTINUOUS
 10
110.9325812485
 20
279.5045352904
 30
0.0
 11
113.1325812485
 21
279.5045352904
 31
0.0
  0
LINE
  5
369
100
AcDbEntity
  8
0
100
AcDbLine
 62
7
  6
CONTINUOUS
 10
120.9325812485
 20
279.5045352904
 30
0.0
 11
123.1325812485
 21
279.5045352904
 31
0.0
  0
LINE
  5
36A
100
AcDbEntity
  8
0
100
AcDbLine
 62
7
  6
CONTINUOUS
 10
130.9325812485
 20
279.5045352904
 30
0.0
 11
133.1325812485
 21
279.5045352904
 31
0.0
  0
LINE
  5
36B
100
AcDbEntity
  8
0
100
AcDbLine
 62
7
  6
CONTINUOUS
 10
140.9325812485
 20
279.5045352904
 30
0.0
 11
143.1325812485
 21
279.5045352904
 31
0.0
  0
LINE
  5
36C
100
AcDbEntity
  8
0
100
AcDbLine
 62
7
  6
CONTINUOUS
 10
150.9325812485
 20
279.5045352904
 30
0.0
 11
153.1325812485
 21
279.5045352904
 31
0.0
  0
LINE
  5
36D
100
AcDbEntity
  8
0
100
AcDbLine
 62
7
  6
CONTINUOUS
 10
30.9325812485
 20
273.3045352904
 30
0.0
 11
30.9325812485
 21
279.5045352904
 31
0.0
  0
LINE
  5
36E
100
AcDbEntity
  8
0
100
AcDbLine
 62
7
  6
CONTINUOUS
 10
33.1325812485
 20
273.3045352904
 30
0.0
 11
33.1325812485
 21
279.5045352904
 31
0.0
  0
LINE
  5
36F
100
AcDbEntity
  8
0
100
AcDbLine
 62
7
  6
CONTINUOUS
 10
166.0325812485
 20
284.3045352904
 30
0.0
 11
-161.9674187515
 21
284.3045352904
 31
0.0
  0
LINE
  5
370
100
AcDbEntity
  8
0
100
AcDbLine
 62
7
  6
CONTINUOUS
 10
40.9325812485
 20
273.3045352904
 30
0.0
 11
40.9325812485
 21
279.5045352904
 31
0.0
  0
LINE
  5
371
100
AcDbEntity
  8
0
100
AcDbLine
 62
7
  6
CONTINUOUS
 10
43.1325812485
 20
273.3045352904
 30
0.0
 11
43.1325812485
 21
279.5045352904
 31
0.0
  0
LINE
  5
372
100
AcDbEntity
  8
0
100
AcDbLine
 62
7
  6
CONTINUOUS
 10
50.9325812485
 20
273.3045352904
 30
0.0
 11
50.9325812485
 21
279.5045352904
 31
0.0
  0
LINE
  5
373
100
AcDbEntity
  8
0
100
AcDbLine
 62
7
  6
CONTINUOUS
 10
53.1325812485
 20
273.3045352904
 30
0.0
 11
53.1325812485
 21
279.5045352904
 31
0.0
  0
LINE
  5
374
100
AcDbEntity
  8
0
100
AcDbLine
 62
7
  6
CONTINUOUS
 10
60.9325812485
 20
273.3045352904
 30
0.0
 11
60.9325812485
 21
279.5045352904
 31
0.0
  0
LINE
  5
375
100
AcDbEntity
  8
0
100
AcDbLine
 62
7
  6
CONTINUOUS
 10
63.1325812485
 20
273.3045352904
 30
0.0
 11
63.1325812485
 21
279.5045352904
 31
0.0
  0
LINE
  5
376
100
AcDbEntity
  8
0
100
AcDbLine
 62
7
  6
CONTINUOUS
 10
70.9325812485
 20
273.3045352904
 30
0.0
 11
70.9325812485
 21
279.5045352904
 31
0.0
  0
LINE
  5
377
100
AcDbEntity
  8
0
100
AcDbLine
 62
7
  6
CONTINUOUS
 10
73.1325812485
 20
273.3045352904
 30
0.0
 11
73.1325812485
 21
279.5045352904
 31
0.0
  0
LINE
  5
378
100
AcDbEntity
  8
0
100
AcDbLine
 62
7
  6
CONTINUOUS
 10
80.9325812485
 20
273.3045352904
 30
0.0
 11
80.9325812485
 21
279.5045352904
 31
0.0
  0
LINE
  5
379
100
AcDbEntity
  8
0
100
AcDbLine
 62
7
  6
CONTINUOUS
 10
83.1325812485
 20
273.3045352904
 30
0.0
 11
83.1325812485
 21
279.5045352904
 31
0.0
  0
LINE
  5
37A
100
AcDbEntity
  8
0
100
AcDbLine
 62
7
  6
CONTINUOUS
 10
90.9325812485
 20
273.3045352904
 30
0.0
 11
90.9325812485
 21
279.5045352904
 31
0.0
  0
LINE
  5
37B
100
AcDbEntity
  8
0
100
AcDbLine
 62
7
  6
CONTINUOUS
 10
93.1325812485
 20
273.3045352904
 30
0.0
 11
93.1325812485
 21
279.5045352904
 31
0.0
  0
LINE
  5
37C
100
AcDbEntity
  8
0
100
AcDbLine
 62
7
  6
CONTINUOUS
 10
100.9325812485
 20
273.3045352904
 30
0.0
 11
100.9325812485
 21
279.5045352904
 31
0.0
  0
LINE
  5
37D
100
AcDbEntity
  8
0
100
AcDbLine
 62
7
  6
CONTINUOUS
 10
103.1325812485
 20
273.3045352904
 30
0.0
 11
103.1325812485
 21
279.5045352904
 31
0.0
  0
LINE
  5
37E
100
AcDbEntity
  8
0
100
AcDbLine
 62
7
  6
CONTINUOUS
 10
110.9325812485
 20
273.3045352904
 30
0.0
 11
110.9325812485
 21
279.5045352904
 31
0.0
  0
LINE
  5
37F
100
AcDbEntity
  8
0
100
AcDbLine
 62
7
  6
CONTINUOUS
 10
113.1325812485
 20
273.3045352904
 30
0.0
 11
113.1325812485
 21
279.5045352904
 31
0.0
  0
LINE
  5
380
100
AcDbEntity
  8
0
100
AcDbLine
 62
7
  6
CONTINUOUS
 10
120.9325812485
 20
273.3045352904
 30
0.0
 11
120.9325812485
 21
279.5045352904
 31
0.0
  0
LINE
  5
381
100
AcDbEntity
  8
0
100
AcDbLine
 62
7
  6
CONTINUOUS
 10
123.1325812485
 20
273.3045352904
 30
0.0
 11
123.1325812485
 21
279.5045352904
 31
0.0
  0
LINE
  5
382
100
AcDbEntity
  8
0
100
AcDbLine
 62
7
  6
CONTINUOUS
 10
130.9325812485
 20
273.3045352904
 30
0.0
 11
130.9325812485
 21
279.5045352904
 31
0.0
  0
LINE
  5
383
100
AcDbEntity
  8
0
100
AcDbLine
 62
7
  6
CONTINUOUS
 10
133.1325812485
 20
273.3045352904
 30
0.0
 11
133.1325812485
 21
279.5045352904
 31
0.0
  0
LINE
  5
384
100
AcDbEntity
  8
0
100
AcDbLine
 62
7
  6
CONTINUOUS
 10
140.9325812485
 20
273.3045352904
 30
0.0
 11
140.9325812485
 21
279.5045352904
 31
0.0
  0
LINE
  5
385
100
AcDbEntity
  8
0
100
AcDbLine
 62
7
  6
CONTINUOUS
 10
143.1325812485
 20
273.3045352904
 30
0.0
 11
143.1325812485
 21
279.5045352904
 31
0.0
  0
LINE
  5
386
100
AcDbEntity
  8
0
100
AcDbLine
 62
7
  6
CONTINUOUS
 10
150.9325812485
 20
273.3045352904
 30
0.0
 11
150.9325812485
 21
279.5045352904
 31
0.0
  0
LINE
  5
387
100
AcDbEntity
  8
0
100
AcDbLine
 62
7
  6
CONTINUOUS
 10
153.1325812485
 20
273.3045352904
 30
0.0
 11
153.1325812485
 21
279.5045352904
 31
0.0
  0
LINE
  5
388
100
AcDbEntity
  8
0
100
AcDbLine
 62
7
  6
CONTINUOUS
 10
166.0325812485
 20
229.3045352904
 30
0.0
 11
166.0325812485
 21
284.3045352904
 31
0.0
  0
LINE
  5
389
100
AcDbEntity
  8
0
100
AcDbLine
 62
7
  6
CONTINUOUS
 10
-354.3909009795
 20
216.9003427809
 30
0.0
 11
-354.3909009795
 21
161.9003427809
 31
0.0
  0
LINE
  5
38A
100
AcDbEntity
  8
0
100
AcDbLine
 62
7
  6
CONTINUOUS
 10
-341.4909009795
 20
205.9003427809
 30
0.0
 11
-341.4909009795
 21
212.1003427809
 31
0.0
  0
LINE
  5
38B
100
AcDbEntity
  8
0
100
AcDbLine
 62
7
  6
CONTINUOUS
 10
-339.2909009795
 20
205.9003427809
 30
0.0
 11
-339.2909009795
 21
212.1003427809
 31
0.0
  0
LINE
  5
38C
100
AcDbEntity
  8
0
100
AcDbLine
 62
7
  6
CONTINUOUS
 10
-336.2856632228
 20
169.3397303632
 30
0.0
 11
-336.2856632228
 21
173.3058367662
 31
0.0
  0
LINE
  5
38D
100
AcDbEntity
  8
0
100
AcDbLine
 62
7
  6
CONTINUOUS
 10
-331.4909009795
 20
205.9003427809
 30
0.0
 11
-331.4909009795
 21
212.1003427809
 31
0.0
  0
LINE
  5
38E
100
AcDbEntity
  8
0
100
AcDbLine
 62
7
  6
CONTINUOUS
 10
-329.6856632228
 20
173.3058367662
 30
0.0
 11
-329.6856632228
 21
169.3397303632
 31
0.0
  0
LINE
  5
38F
100
AcDbEntity
  8
0
100
AcDbLine
 62
7
  6
CONTINUOUS
 10
-329.2909009795
 20
205.9003427809
 30
0.0
 11
-329.2909009795
 21
212.1003427809
 31
0.0
  0
LINE
  5
390
100
AcDbEntity
  8
0
100
AcDbLine
 62
7
  6
CONTINUOUS
 10
-321.4909009795
 20
205.9003427809
 30
0.0
 11
-321.4909009795
 21
212.1003427809
 31
0.0
  0
LINE
  5
391
100
AcDbEntity
  8
0
100
AcDbLine
 62
7
  6
CONTINUOUS
 10
-319.2909009795
 20
205.9003427809
 30
0.0
 11
-319.2909009795
 21
212.1003427809
 31
0.0
  0
LINE
  5
392
100
AcDbEntity
  8
0
100
AcDbLine
 62
7
  6
CONTINUOUS
 10
-311.4909009795
 20
205.9003427809
 30
0.0
 11
-311.4909009795
 21
212.1003427809
 31
0.0
  0
LINE
  5
393
100
AcDbEntity
  8
0
100
AcDbLine
 62
7
  6
CONTINUOUS
 10
-309.2909009795
 20
205.9003427809
 30
0.0
 11
-309.2909009795
 21
212.1003427809
 31
0.0
  0
LINE
  5
394
100
AcDbEntity
  8
0
100
AcDbLine
 62
7
  6
CONTINUOUS
 10
-301.4909009795
 20
205.9003427809
 30
0.0
 11
-301.4909009795
 21
212.1003427809
 31
0.0
  0
LINE
  5
395
100
AcDbEntity
  8
0
100
AcDbLine
 62
7
  6
CONTINUOUS
 10
-299.2909009795
 20
205.9003427809
 30
0.0
 11
-299.2909009795
 21
212.1003427809
 31
0.0
  0
LINE
  5
396
100
AcDbEntity
  8
0
100
AcDbLine
 62
7
  6
CONTINUOUS
 10
-354.3909009795
 20
161.9003427809
 30
0.0
 11
-186.3909009795
 21
161.9003427809
 31
0.0
  0
LINE
  5
397
100
AcDbEntity
  8
0
100
AcDbLine
 62
7
  6
CONTINUOUS
 10
-291.4909009795
 20
205.9003427809
 30
0.0
 11
-291.4909009795
 21
212.1003427809
 31
0.0
  0
LINE
  5
398
100
AcDbEntity
  8
0
100
AcDbLine
 62
7
  6
CONTINUOUS
 10
-289.2909009795
 20
205.9003427809
 30
0.0
 11
-289.2909009795
 21
212.1003427809
 31
0.0
  0
LINE
  5
399
100
AcDbEntity
  8
0
100
AcDbLine
 62
7
  6
CONTINUOUS
 10
-281.4909009795
 20
205.9003427809
 30
0.0
 11
-281.4909009795
 21
212.1003427809
 31
0.0
  0
LINE
  5
39A
100
AcDbEntity
  8
0
100
AcDbLine
 62
7
  6
CONTINUOUS
 10
-279.2909009795
 20
205.9003427809
 30
0.0
 11
-279.2909009795
 21
212.1003427809
 31
0.0
  0
LINE
  5
39B
100
AcDbEntity
  8
0
100
AcDbLine
 62
7
  6
CONTINUOUS
 10
-298.6909009795
 20
182.8503427809
 30
0.0
 11
-320.0909009795
 21
182.8503427809
 31
0.0
  0
LINE
  5
39C
100
AcDbEntity
  8
0
100
AcDbLine
 62
7
  6
CONTINUOUS
 10
-271.4909009795
 20
205.9003427809
 30
0.0
 11
-271.4909009795
 21
212.1003427809
 31
0.0
  0
LINE
  5
39D
100
AcDbEntity
  8
0
100
AcDbLine
 62
7
  6
CONTINUOUS
 10
-269.2909009795
 20
205.9003427809
 30
0.0
 11
-269.2909009795
 21
212.1003427809
 31
0.0
  0
LINE
  5
39E
100
AcDbEntity
  8
0
100
AcDbLine
 62
7
  6
CONTINUOUS
 10
-320.0909009795
 20
193.4503427809
 30
0.0
 11
-298.6909009795
 21
193.4503427809
 31
0.0
  0
LINE
  5
39F
100
AcDbEntity
  8
0
100
AcDbLine
 62
7
  6
CONTINUOUS
 10
-261.4909009795
 20
205.9003427809
 30
0.0
 11
-261.4909009795
 21
212.1003427809
 31
0.0
  0
LINE
  5
3A0
100
AcDbEntity
  8
0
100
AcDbLine
 62
7
  6
CONTINUOUS
 10
-259.2909009795
 20
205.9003427809
 30
0.0
 11
-259.2909009795
 21
212.1003427809
 31
0.0
  0
LINE
  5
3A1
100
AcDbEntity
  8
0
100
AcDbLine
 62
7
  6
CONTINUOUS
 10
-341.4909009795
 20
205.9003427809
 30
0.0
 11
-339.2909009795
 21
205.9003427809
 31
0.0
  0
LINE
  5
3A2
100
AcDbEntity
  8
0
100
AcDbLine
 62
7
  6
CONTINUOUS
 10
-331.4909009795
 20
205.9003427809
 30
0.0
 11
-329.2909009795
 21
205.9003427809
 31
0.0
  0
LINE
  5
3A3
100
AcDbEntity
  8
0
100
AcDbLine
 62
7
  6
CONTINUOUS
 10
-321.4909009795
 20
205.9003427809
 30
0.0
 11
-319.2909009795
 21
205.9003427809
 31
0.0
  0
LINE
  5
3A4
100
AcDbEntity
  8
0
100
AcDbLine
 62
7
  6
CONTINUOUS
 10
-311.4909009795
 20
205.9003427809
 30
0.0
 11
-309.2909009795
 21
205.9003427809
 31
0.0
  0
LINE
  5
3A5
100
AcDbEntity
  8
0
100
AcDbLine
 62
7
  6
CONTINUOUS
 10
-301.4909009795
 20
205.9003427809
 30
0.0
 11
-299.2909009795
 21
205.9003427809
 31
0.0
  0
LINE
  5
3A6
100
AcDbEntity
  8
0
100
AcDbLine
 62
7
  6
CONTINUOUS
 10
-291.4909009795
 20
205.9003427809
 30
0.0
 11
-289.2909009795
 21
205.9003427809
 31
0.0
  0
LINE
  5
3A7
100
AcDbEntity
  8
0
100
AcDbLine
 62
7
  6
CONTINUOUS
 10
-281.4909009795
 20
205.9003427809
 30
0.0
 11
-279.2909009795
 21
205.9003427809
 31
0.0
  0
LINE
  5
3A8
100
AcDbEntity
  8
0
100
AcDbLine
 62
7
  6
CONTINUOUS
 10
-271.4909009795
 20
205.9003427809
 30
0.0
 11
-269.2909009795
 21
205.9003427809
 31
0.0
  0
LINE
  5
3A9
100
AcDbEntity
  8
0
100
AcDbLine
 62
7
  6
CONTINUOUS
 10
-261.4909009795
 20
205.9003427809
 30
0.0
 11
-259.2909009795
 21
205.9003427809
 31
0.0
  0
LINE
  5
3AA
100
AcDbEntity
  8
0
100
AcDbLine
 62
7
  6
CONTINUOUS
 10
-251.4909009795
 20
205.9003427809
 30
0.0
 11
-249.2909009795
 21
205.9003427809
 31
0.0
  0
LINE
  5
3AB
100
AcDbEntity
  8
0
100
AcDbLine
 62
7
  6
CONTINUOUS
 10
-241.4909009795
 20
205.9003427809
 30
0.0
 11
-239.2909009795
 21
205.9003427809
 31
0.0
  0
LINE
  5
3AC
100
AcDbEntity
  8
0
100
AcDbLine
 62
7
  6
CONTINUOUS
 10
-231.4909009795
 20
205.9003427809
 30
0.0
 11
-229.2909009795
 21
205.9003427809
 31
0.0
  0
LINE
  5
3AD
100
AcDbEntity
  8
0
100
AcDbLine
 62
7
  6
CONTINUOUS
 10
-221.4909009795
 20
205.9003427809
 30
0.0
 11
-219.2909009795
 21
205.9003427809
 31
0.0
  0
LINE
  5
3AE
100
AcDbEntity
  8
0
100
AcDbLine
 62
7
  6
CONTINUOUS
 10
-211.4909009795
 20
205.9003427809
 30
0.0
 11
-209.2909009795
 21
205.9003427809
 31
0.0
  0
LINE
  5
3AF
100
AcDbEntity
  8
0
100
AcDbLine
 62
7
  6
CONTINUOUS
 10
-201.4909009795
 20
205.9003427809
 30
0.0
 11
-199.2909009795
 21
205.9003427809
 31
0.0
  0
LINE
  5
3B0
100
AcDbEntity
  8
0
100
AcDbLine
 62
7
  6
CONTINUOUS
 10
-251.4909009795
 20
205.9003427809
 30
0.0
 11
-251.4909009795
 21
212.1003427809
 31
0.0
  0
LINE
  5
3B1
100
AcDbEntity
  8
0
100
AcDbLine
 62
7
  6
CONTINUOUS
 10
-249.2909009795
 20
205.9003427809
 30
0.0
 11
-249.2909009795
 21
212.1003427809
 31
0.0
  0
LINE
  5
3B2
100
AcDbEntity
  8
0
100
AcDbLine
 62
7
  6
CONTINUOUS
 10
-199.2909009795
 20
212.1003427809
 30
0.0
 11
-201.4909009795
 21
212.1003427809
 31
0.0
  0
LINE
  5
3B3
100
AcDbEntity
  8
0
100
AcDbLine
 62
7
  6
CONTINUOUS
 10
-209.2909009795
 20
212.1003427809
 30
0.0
 11
-211.4909009795
 21
212.1003427809
 31
0.0
  0
LINE
  5
3B4
100
AcDbEntity
  8
0
100
AcDbLine
 62
7
  6
CONTINUOUS
 10
-219.2909009795
 20
212.1003427809
 30
0.0
 11
-221.4909009795
 21
212.1003427809
 31
0.0
  0
LINE
  5
3B5
100
AcDbEntity
  8
0
100
AcDbLine
 62
7
  6
CONTINUOUS
 10
-229.2909009795
 20
212.1003427809
 30
0.0
 11
-231.4909009795
 21
212.1003427809
 31
0.0
  0
LINE
  5
3B6
100
AcDbEntity
  8
0
100
AcDbLine
 62
7
  6
CONTINUOUS
 10
-239.2909009795
 20
212.1003427809
 30
0.0
 11
-241.4909009795
 21
212.1003427809
 31
0.0
  0
LINE
  5
3B7
100
AcDbEntity
  8
0
100
AcDbLine
 62
7
  6
CONTINUOUS
 10
-249.2909009795
 20
212.1003427809
 30
0.0
 11
-251.4909009795
 21
212.1003427809
 31
0.0
  0
LINE
  5
3B8
100
AcDbEntity
  8
0
100
AcDbLine
 62
7
  6
CONTINUOUS
 10
-259.2909009795
 20
212.1003427809
 30
0.0
 11
-261.4909009795
 21
212.1003427809
 31
0.0
  0
LINE
  5
3B9
100
AcDbEntity
  8
0
100
AcDbLine
 62
7
  6
CONTINUOUS
 10
-269.2909009795
 20
212.1003427809
 30
0.0
 11
-271.4909009795
 21
212.1003427809
 31
0.0
  0
LINE
  5
3BA
100
AcDbEntity
  8
0
100
AcDbLine
 62
7
  6
CONTINUOUS
 10
-279.2909009795
 20
212.1003427809
 30
0.0
 11
-281.4909009795
 21
212.1003427809
 31
0.0
  0
LINE
  5
3BB
100
AcDbEntity
  8
0
100
AcDbLine
 62
7
  6
CONTINUOUS
 10
-289.2909009795
 20
212.1003427809
 30
0.0
 11
-291.4909009795
 21
212.1003427809
 31
0.0
  0
LINE
  5
3BC
100
AcDbEntity
  8
0
100
AcDbLine
 62
7
  6
CONTINUOUS
 10
-299.2909009795
 20
212.1003427809
 30
0.0
 11
-301.4909009795
 21
212.1003427809
 31
0.0
  0
LINE
  5
3BD
100
AcDbEntity
  8
0
100
AcDbLine
 62
7
  6
CONTINUOUS
 10
-309.2909009795
 20
212.1003427809
 30
0.0
 11
-311.4909009795
 21
212.1003427809
 31
0.0
  0
LINE
  5
3BE
100
AcDbEntity
  8
0
100
AcDbLine
 62
7
  6
CONTINUOUS
 10
-319.2909009795
 20
212.1003427809
 30
0.0
 11
-321.4909009795
 21
212.1003427809
 31
0.0
  0
LINE
  5
3BF
100
AcDbEntity
  8
0
100
AcDbLine
 62
7
  6
CONTINUOUS
 10
-329.2909009795
 20
212.1003427809
 30
0.0
 11
-331.4909009795
 21
212.1003427809
 31
0.0
  0
LINE
  5
3C0
100
AcDbEntity
  8
0
100
AcDbLine
 62
7
  6
CONTINUOUS
 10
-339.2909009795
 20
212.1003427809
 30
0.0
 11
-341.4909009795
 21
212.1003427809
 31
0.0
  0
LINE
  5
3C1
100
AcDbEntity
  8
0
100
AcDbLine
 62
7
  6
CONTINUOUS
 10
-241.4909009795
 20
205.9003427809
 30
0.0
 11
-241.4909009795
 21
212.1003427809
 31
0.0
  0
LINE
  5
3C2
100
AcDbEntity
  8
0
100
AcDbLine
 62
7
  6
CONTINUOUS
 10
-186.3909009795
 20
216.9003427809
 30
0.0
 11
-354.3909009795
 21
216.9003427809
 31
0.0
  0
LINE
  5
3C3
100
AcDbEntity
  8
0
100
AcDbLine
 62
7
  6
CONTINUOUS
 10
-239.2909009795
 20
205.9003427809
 30
0.0
 11
-239.2909009795
 21
212.1003427809
 31
0.0
  0
LINE
  5
3C4
100
AcDbEntity
  8
0
100
AcDbLine
 62
7
  6
CONTINUOUS
 10
-231.4909009795
 20
205.9003427809
 30
0.0
 11
-231.4909009795
 21
212.1003427809
 31
0.0
  0
LINE
  5
3C5
100
AcDbEntity
  8
0
100
AcDbLine
 62
7
  6
CONTINUOUS
 10
-229.2909009795
 20
205.9003427809
 30
0.0
 11
-229.2909009795
 21
212.1003427809
 31
0.0
  0
LINE
  5
3C6
100
AcDbEntity
  8
0
100
AcDbLine
 62
7
  6
CONTINUOUS
 10
-221.4909009795
 20
205.9003427809
 30
0.0
 11
-221.4909009795
 21
212.1003427809
 31
0.0
  0
LINE
  5
3C7
100
AcDbEntity
  8
0
100
AcDbLine
 62
7
  6
CONTINUOUS
 10
-219.2909009795
 20
205.9003427809
 30
0.0
 11
-219.2909009795
 21
212.1003427809
 31
0.0
  0
LINE
  5
3C8
100
AcDbEntity
  8
0
100
AcDbLine
 62
7
  6
CONTINUOUS
 10
-211.4909009795
 20
205.9003427809
 30
0.0
 11
-211.4909009795
 21
212.1003427809
 31
0.0
  0
LINE
  5
3C9
100
AcDbEntity
  8
0
100
AcDbLine
 62
7
  6
CONTINUOUS
 10
-209.2909009795
 20
205.9003427809
 30
0.0
 11
-209.2909009795
 21
212.1003427809
 31
0.0
  0
LINE
  5
3CA
100
AcDbEntity
  8
0
100
AcDbLine
 62
7
  6
CONTINUOUS
 10
-201.4909009795
 20
205.9003427809
 30
0.0
 11
-201.4909009795
 21
212.1003427809
 31
0.0
  0
LINE
  5
3CB
100
AcDbEntity
  8
0
100
AcDbLine
 62
7
  6
CONTINUOUS
 10
-199.2909009795
 20
205.9003427809
 30
0.0
 11
-199.2909009795
 21
212.1003427809
 31
0.0
  0
LINE
  5
3CC
100
AcDbEntity
  8
0
100
AcDbLine
 62
7
  6
CONTINUOUS
 10
-186.3909009795
 20
161.9003427809
 30
0.0
 11
-186.3909009795
 21
216.9003427809
 31
0.0
  0
LINE
  5
3CD
100
AcDbEntity
  8
0
100
AcDbLine
 62
7
  6
CONTINUOUS
 10
-169.5666378217
 20
414.0263030667
 30
0.0
 11
-153.9097835722
 21
429.6831573161
 31
0.0
  0
LINE
  5
3CE
100
AcDbEntity
  8
0
100
AcDbLine
 62
7
  6
CONTINUOUS
 10
-163.9097835722
 20
411.6831573161
 30
0.0
 11
178.0902164278
 21
411.6831573161
 31
0.0
  0
LINE
  5
3CF
100
AcDbEntity
  8
0
100
AcDbLine
 62
7
  6
CONTINUOUS
 10
168.0902164278
 20
429.6831573161
 30
0.0
 11
-153.9097835722
 21
429.6831573161
 31
0.0
  0
LINE
  5
3D0
100
AcDbEntity
  8
0
100
AcDbLine
 62
7
  6
CONTINUOUS
 10
168.0902164278
 20
429.6831573161
 30
0.0
 11
183.7470706773
 21
414.0263030667
 31
0.0
  0
LINE
  5
3D1
100
AcDbEntity
  8
0
100
AcDbLine
 62
7
  6
CONTINUOUS
 10
-170.6229713401
 20
386.0835726201
 30
0.0
 11
-154.9661170906
 21
401.7404268696
 31
0.0
  0
LINE
  5
3D2
100
AcDbEntity
  8
0
100
AcDbLine
 62
7
  6
CONTINUOUS
 10
-164.9661170906
 20
383.7404268696
 30
0.0
 11
177.0338829094
 21
383.7404268696
 31
0.0
  0
LINE
  5
3D3
100
AcDbEntity
  8
0
100
AcDbLine
 62
7
  6
CONTINUOUS
 10
167.0338829094
 20
401.7404268696
 30
0.0
 11
-154.9661170906
 21
401.7404268696
 31
0.0
  0
LINE
  5
3D4
100
AcDbEntity
  8
0
100
AcDbLine
 62
7
  6
CONTINUOUS
 10
167.0338829094
 20
401.7404268696
 30
0.0
 11
182.6907371589
 21
386.0835726201
 31
0.0
  0
LINE
  5
3D5
100
AcDbEntity
  8
0
100
AcDbLine
 62
7
  6
CONTINUOUS
 10
-169.69669586
 20
359.4498995375
 30
0.0
 11
-154.0398416105
 21
375.106753787
 31
0.0
  0
LINE
  5
3D6
100
AcDbEntity
  8
0
100
AcDbLine
 62
7
  6
CONTINUOUS
 10
-164.0398416105
 20
357.106753787
 30
0.0
 11
17.9601583895
 21
357.106753787
 31
0.0
  0
LINE
  5
3D7
100
AcDbEntity
  8
0
100
AcDbLine
 62
7
  6
CONTINUOUS
 10
7.9601583895
 20
375.106753787
 30
0.0
 11
-154.0398416105
 21
375.106753787
 31
0.0
  0
LINE
  5
3D8
100
AcDbEntity
  8
0
100
AcDbLine
 62
7
  6
CONTINUOUS
 10
7.9601583895
 20
375.106753787
 30
0.0
 11
23.617012639
 21
359.4498995375
 31
0.0
  0
LINE
  5
3D9
100
AcDbEntity
  8
0
100
AcDbLine
 62
7
  6
CONTINUOUS
 10
-525.2913464512
 20
151.4617315207
 30
0.0
 11
-531.2913464512
 21
145.4617315207
 31
0.0
  0
LINE
  5
3DA
100
AcDbEntity
  8
0
100
AcDbLine
 62
7
  6
CONTINUOUS
 10
-531.2913464512
 20
-14.0382684793
 30
0.0
 11
-525.2913464512
 21
-20.0382684793
 31
0.0
  0
LINE
  5
3DB
100
AcDbEntity
  8
0
100
AcDbLine
 62
7
  6
CONTINUOUS
 10
-531.2913464512
 20
145.4617315207
 30
0.0
 11
-531.2913464512
 21
-14.0382684793
 31
0.0
  0
LINE
  5
3DC
100
AcDbEntity
  8
0
100
AcDbLine
 62
7
  6
CONTINUOUS
 10
-525.2913464512
 20
-20.0382684793
 30
0.0
 11
-205.7913464512
 21
-20.0382684793
 31
0.0
  0
LINE
  5
3DD
100
AcDbEntity
  8
0
100
AcDbLine
 62
7
  6
CONTINUOUS
 10
-205.7913464512
 20
151.4617315207
 30
0.0
 11
-525.2913464512
 21
151.4617315207
 31
0.0
  0
LINE
  5
3DE
100
AcDbEntity
  8
0
100
AcDbLine
 62
7
  6
CONTINUOUS
 10
-199.7913464512
 20
-14.0382684793
 30
0.0
 11
-199.7913464512
 21
145.4617315207
 31
0.0
  0
LINE
  5
3DF
100
AcDbEntity
  8
0
100
AcDbLine
 62
7
  6
CONTINUOUS
 10
-205.7913464512
 20
-20.0382684793
 30
0.0
 11
-199.7913464512
 21
-14.0382684793
 31
0.0
  0
LINE
  5
3E0
100
AcDbEntity
  8
0
100
AcDbLine
 62
7
  6
CONTINUOUS
 10
-199.7913464512
 20
145.4617315207
 30
0.0
 11
-205.7913464512
 21
151.4617315207
 31
0.0
  0
LINE
  5
3E1
100
AcDbEntity
  8
0
100
AcDbLine
 62
7
  6
CONTINUOUS
 10
31.7417475778
 20
357.7816382986
 30
0.0
 11
47.3986018273
 21
373.4384925481
 31
0.0
  0
LINE
  5
3E2
100
AcDbEntity
  8
0
100
AcDbLine
 62
7
  6
CONTINUOUS
 10
37.3986018273
 20
355.4384925481
 30
0.0
 11
219.3986018273
 21
355.4384925481
 31
0.0
  0
LINE
  5
3E3
100
AcDbEntity
  8
0
100
AcDbLine
 62
7
  6
CONTINUOUS
 10
209.3986018273
 20
373.4384925481
 30
0.0
 11
47.3986018273
 21
373.4384925481
 31
0.0
  0
LINE
  5
3E4
100
AcDbEntity
  8
0
100
AcDbLine
 62
7
  6
CONTINUOUS
 10
209.3986018273
 20
373.4384925481
 30
0.0
 11
225.0554560768
 21
357.7816382986
 31
0.0
  0
ARC
  5
3E5
100
AcDbEntity
  8
0
100
AcDbCircle
 62
7
  6
CONTINUOUS
 10
-525.3125084616
 20
239.6163451339
 30
0.0
 40
8.0
100
AcDbArc
 50
180.0
 51
270.0
  0
ARC
  5
3E6
100
AcDbEntity
  8
0
100
AcDbCircle
 62
7
  6
CONTINUOUS
 10
-183.3125084616
 20
239.6163451339
 30
0.0
 40
8.0
100
AcDbArc
 50
270.0
 51
360.0
  0
ARC
  5
3E7
100
AcDbEntity
  8
0
100
AcDbCircle
 62
7
  6
CONTINUOUS
 10
-183.3125084616
 20
421.6163451339
 30
0.0
 40
8.0
100
AcDbArc
 50
0.0
 51
90.0
  0
ARC
  5
3E8
100
AcDbEntity
  8
0
100
AcDbCircle
 62
7
  6
CONTINUOUS
 10
-525.3125084616
 20
421.6163451339
 30
0.0
 40
8.0
100
AcDbArc
 50
90.0
 51
180.0
  0
CIRCLE
  5
3E9
100
AcDbEntity
  8
0
100
AcDbCircle
 62
7
  6
CONTINUOUS
 10
-525.3125084616
 20
239.6163451339
 30
0.0
 40
1.75
  0
CIRCLE
  5
3EA
100
AcDbEntity
  8
0
100
AcDbCircle
 62
7
  6
CONTINUOUS
 10
-183.3125084616
 20
239.6163451339
 30
0.0
 40
1.75
  0
CIRCLE
  5
3EB
100
AcDbEntity
  8
0
100
AcDbCircle
 62
7
  6
CONTINUOUS
 10
-183.3125084616
 20
421.6163451339
 30
0.0
 40
1.75
  0
CIRCLE
  5
3EC
100
AcDbEntity
  8
0
100
AcDbCircle
 62
7
  6
CONTINUOUS
 10
-525.3125084616
 20
421.6163451339
 30
0.0
 40
1.75
  0
CIRCLE
  5
3ED
100
AcDbEntity
  8
0
100
AcDbCircle
 62
7
  6
CONTINUOUS
 10
158.4814186802
 20
320.2380389853
 30
0.0
 40
1.75
  0
CIRCLE
  5
3EE
100
AcDbEntity
  8
0
100
AcDbCircle
 62
7
  6
CONTINUOUS
 10
-157.5185813198
 20
320.2380389853
 30
0.0
 40
1.75
  0
CIRCLE
  5
3EF
100
AcDbEntity
  8
0
100
AcDbCircle
 62
7
  6
CONTINUOUS
 10
20.4814186802
 20
314.2825725056
 30
0.0
 40
1.7
  0
ARC
  5
3F0
100
AcDbEntity
  8
0
100
AcDbCircle
 62
7
  6
CONTINUOUS
 10
-499.6035798918
 20
187.5935366621
 30
0.0
 40
5.3
100
AcDbArc
 50
90.0
 51
270.0
  0
ARC
  5
3F1
100
AcDbEntity
  8
0
100
AcDbCircle
 62
7
  6
CONTINUOUS
 10
-478.2035798918
 20
187.5935366621
 30
0.0
 40
5.3
100
AcDbArc
 50
270.0
 51
90.0
  0
CIRCLE
  5
3F2
100
AcDbEntity
  8
0
100
AcDbCircle
 62
7
  6
CONTINUOUS
 10
-405.4035798918
 20
181.3435366621
 30
0.0
 40
1.75
  0
CIRCLE
  5
3F3
100
AcDbEntity
  8
0
100
AcDbCircle
 62
7
  6
CONTINUOUS
 10
-422.4035798918
 20
181.3435366621
 30
0.0
 40
1.75
  0
CIRCLE
  5
3F4
100
AcDbEntity
  8
0
100
AcDbCircle
 62
7
  6
CONTINUOUS
 10
-371.9035798918
 20
188.8435366621
 30
0.0
 40
1.75
  0
CIRCLE
  5
3F5
100
AcDbEntity
  8
0
100
AcDbCircle
 62
7
  6
CONTINUOUS
 10
-527.9035798918
 20
188.8435366621
 30
0.0
 40
1.75
  0
CIRCLE
  5
3F6
100
AcDbEntity
  8
0
100
AcDbCircle
 62
7
  6
CONTINUOUS
 10
-463.2638851501
 20
187.5935366621
 30
0.0
 40
1.75
  0
CIRCLE
  5
3F7
100
AcDbEntity
  8
0
100
AcDbCircle
 62
7
  6
CONTINUOUS
 10
-514.5432746334
 20
187.5935366621
 30
0.0
 40
1.75
  0
CIRCLE
  5
3F8
100
AcDbEntity
  8
0
100
AcDbCircle
 62
7
  6
CONTINUOUS
 10
160.0325812485
 20
256.8045352904
 30
0.0
 40
1.75
  0
CIRCLE
  5
3F9
100
AcDbEntity
  8
0
100
AcDbCircle
 62
7
  6
CONTINUOUS
 10
-155.9674187515
 20
256.8045352904
 30
0.0
 40
1.75
  0
CIRCLE
  5
3FA
100
AcDbEntity
  8
0
100
AcDbCircle
 62
7
  6
CONTINUOUS
 10
-250.3909009795
 20
183.4003427809
 30
0.0
 40
15.0
  0
ARC
  5
3FB
100
AcDbEntity
  8
0
100
AcDbCircle
 62
7
  6
CONTINUOUS
 10
-298.6909009795
 20
188.1503427809
 30
0.0
 40
5.3
100
AcDbArc
 50
270.0
 51
90.0
  0
ARC
  5
3FC
100
AcDbEntity
  8
0
100
AcDbCircle
 62
7
  6
CONTINUOUS
 10
-320.0909009795
 20
188.1503427809
 30
0.0
 40
5.3
100
AcDbArc
 50
90.0
 51
270.0
  0
ARC
  5
3FD
100
AcDbEntity
  8
0
100
AcDbCircle
 62
7
  6
CONTINUOUS
 10
-332.9856632228
 20
171.3227835647
 30
0.0
 40
3.85
100
AcDbArc
 50
211.0027191339
 51
328.9972808661
  0
ARC
  5
3FE
100
AcDbEntity
  8
0
100
AcDbCircle
 62
7
  6
CONTINUOUS
 10
-332.9856632228
 20
171.3227835647
 30
0.0
 40
3.85
100
AcDbArc
 50
31.0027191339
 51
148.9972808661
  0
CIRCLE
  5
3FF
100
AcDbEntity
  8
0
100
AcDbCircle
 62
7
  6
CONTINUOUS
 10
-335.0305957212
 20
188.1503427809
 30
0.0
 40
1.75
  0
CIRCLE
  5
400
100
AcDbEntity
  8
0
100
AcDbCircle
 62
7
  6
CONTINUOUS
 10
-283.7512062379
 20
188.1503427809
 30
0.0
 40
1.75
  0
CIRCLE
  5
401
100
AcDbEntity
  8
0
100
AcDbCircle
 62
7
  6
CONTINUOUS
 10
-192.3909009795
 20
189.4003427809
 30
0.0
 40
1.75
  0
CIRCLE
  5
402
100
AcDbEntity
  8
0
100
AcDbCircle
 62
7
  6
CONTINUOUS
 10
-348.3909009795
 20
189.4003427809
 30
0.0
 40
1.75
  0
CIRCLE
  5
403
100
AcDbEntity
  8
0
100
AcDbCircle
 62
7
  6
CONTINUOUS
 10
-226.9909009795
 20
194.9003427809
 30
0.0
 40
1.7
  0
CIRCLE
  5
404
100
AcDbEntity
  8
0
100
AcDbCircle
 62
7
  6
CONTINUOUS
 10
-271.9909009795
 20
194.9003427809
 30
0.0
 40
1.7
  0
CIRCLE
  5
405
100
AcDbEntity
  8
0
100
AcDbCircle
 62
7
  6
CONTINUOUS
 10
-271.9909009795
 20
169.9003427809
 30
0.0
 40
1.7
  0
CIRCLE
  5
406
100
AcDbEntity
  8
0
100
AcDbCircle
 62
7
  6
CONTINUOUS
 10
-226.9909009795
 20
169.9003427809
 30
0.0
 40
1.7
  0
ARC
  5
407
100
AcDbEntity
  8
0
100
AcDbCircle
 62
7
  6
CONTINUOUS
 10
-163.9097835722
 20
419.6831573161
 30
0.0
 40
8.0
100
AcDbArc
 50
225.0
 51
270.0
  0
ARC
  5
408
100
AcDbEntity
  8
0
100
AcDbCircle
 62
7
  6
CONTINUOUS
 10
178.0902164278
 20
419.6831573161
 30
0.0
 40
8.0
100
AcDbArc
 50
270.0
 51
315.0
  0
CIRCLE
  5
409
100
AcDbEntity
  8
0
100
AcDbCircle
 62
7
  6
CONTINUOUS
 10
163.0902164278
 20
420.6831573161
 30
0.0
 40
1.75
  0
CIRCLE
  5
40A
100
AcDbEntity
  8
0
100
AcDbCircle
 62
7
  6
CONTINUOUS
 10
-148.9097835722
 20
420.6831573161
 30
0.0
 40
1.75
  0
ARC
  5
40B
100
AcDbEntity
  8
0
100
AcDbCircle
 62
7
  6
CONTINUOUS
 10
-164.9661170906
 20
391.7404268696
 30
0.0
 40
8.0
100
AcDbArc
 50
225.0
 51
270.0
  0
ARC
  5
40C
100
AcDbEntity
  8
0
100
AcDbCircle
 62
7
  6
CONTINUOUS
 10
177.0338829094
 20
391.7404268696
 30
0.0
 40
8.0
100
AcDbArc
 50
270.0
 51
315.0
  0
CIRCLE
  5
40D
100
AcDbEntity
  8
0
100
AcDbCircle
 62
7
  6
CONTINUOUS
 10
162.0338829094
 20
392.7404268696
 30
0.0
 40
1.75
  0
CIRCLE
  5
40E
100
AcDbEntity
  8
0
100
AcDbCircle
 62
7
  6
CONTINUOUS
 10
-149.9661170906
 20
392.7404268696
 30
0.0
 40
1.75
  0
ARC
  5
40F
100
AcDbEntity
  8
0
100
AcDbCircle
 62
7
  6
CONTINUOUS
 10
-164.0398416105
 20
365.106753787
 30
0.0
 40
8.0
100
AcDbArc
 50
225.0
 51
270.0
  0
ARC
  5
410
100
AcDbEntity
  8
0
100
AcDbCircle
 62
7
  6
CONTINUOUS
 10
17.9601583895
 20
365.106753787
 30
0.0
 40
8.0
100
AcDbArc
 50
270.0
 51
315.0
  0
CIRCLE
  5
411
100
AcDbEntity
  8
0
100
AcDbCircle
 62
7
  6
CONTINUOUS
 10
2.9601583895
 20
366.106753787
 30
0.0
 40
1.75
  0
CIRCLE
  5
412
100
AcDbEntity
  8
0
100
AcDbCircle
 62
7
  6
CONTINUOUS
 10
-149.0398416105
 20
366.106753787
 30
0.0
 40
1.75
  0
CIRCLE
  5
413
100
AcDbEntity
  8
0
100
AcDbCircle
 62
7
  6
CONTINUOUS
 10
-170.3542164361
 20
213.7226334713
 30
0.0
 40
3.5
  0
CIRCLE
  5
414
100
AcDbEntity
  8
0
100
AcDbCircle
 62
7
  6
CONTINUOUS
 10
-170.3542164361
 20
213.7226334713
 30
0.0
 40
1.75
  0
ARC
  5
415
100
AcDbEntity
  8
0
100
AcDbCircle
 62
7
  6
CONTINUOUS
 10
37.3986018273
 20
363.4384925481
 30
0.0
 40
8.0
100
AcDbArc
 50
225.0
 51
270.0
  0
ARC
  5
416
100
AcDbEntity
  8
0
100
AcDbCircle
 62
7
  6
CONTINUOUS
 10
219.3986018273
 20
363.4384925481
 30
0.0
 40
8.0
100
AcDbArc
 50
270.0
 51
315.0
  0
CIRCLE
  5
417
100
AcDbEntity
  8
0
100
AcDbCircle
 62
7
  6
CONTINUOUS
 10
204.3986018273
 20
364.4384925481
 30
0.0
 40
1.75
  0
CIRCLE
  5
418
100
AcDbEntity
  8
0
100
AcDbCircle
 62
7
  6
CONTINUOUS
 10
52.3986018273
 20
364.4384925481
 30
0.0
 40
1.75
  0
ENDSEC
  0
SECTION
  2
OBJECTS
  0
DICTIONARY
  5
C
100
AcDbDictionary
280
0
281
1
  3
ACAD_GROUP
350
D
  3
ACAD_MLINESTYLE
350
17
  3
ACAD_LAYOUT
350
1A
  3
ACAD_PLOTSETTINGS
350
19
  3
ACAD_PLOTSTYLENAME
350
E
  0
DICTIONARY
  5
D
102
{ACAD_REACTORS
330
C
102
}
100
AcDbDictionary
280
0
281
1
  0
ACDBDICTIONARYWDFLT
  5
E
102
{ACAD_REACTORS
330
C
102
}
100
AcDbDictionary
281
1
  3
Normal
350
F
100
AcDbDictionaryWithDefault
340
F
  0
DICTIONARY
  5
17
102
{ACAD_REACTORS
330
C
102
}
100
AcDbDictionary
280
0
281
1
  3
Standard
350
18
  0
DICTIONARY
  5
19
102
{ACAD_REACTORS
330
C
102
}
100
AcDbDictionary
281
1
  0
DICTIONARY
  5
1A
102
{ACAD_REACTORS
330
C
102
}
100
AcDbDictionary
281
1
  3
Model
350
419
  3
Layout1
350
41A
  0
ACDBPLACEHOLDER
  5
F
102
{ACAD_REACTORS
330
E
102
}
  0
MLINESTYLE
  5
18
102
{ACAD_REACTORS
330
17
102
}
100
AcDbMlineStyle
  2
STANDARD
 70
0
  3

 62
256
 51
90.0
 52
90.0
 71
2
 49
0.5
 62
256
  6
BYLAYER
 49
-0.5
 62
256
  6
BYLAYER
  0
LAYOUT
  5
419
102
{ACAD_REACTORS
330
1A
102
}
100
AcDbPlotSettings
  1

  2
none_device
  4

  6

 40
0.0
 41
0.0
 42
0.0
 43
0.0
 44
210.0
 45
297.0
 46
0.0
 47
0.0
 48
0.0
 49
0.0
140
0.0
141
0.0
142
1.0
143
1.0
 70
1024
 72
1
 73
0
 74
0
  7

 75
0
147
1.0
148
0.0
149
0.0
100
AcDbLayout
  1
Model
 70
0
 71
0
 10
0.0
 20
0.0
 11
210.0
 21
297.0
 12
0.0
 22
0.0
 32
0.0
 14
0.0
 24
0.0
 34
0.0
 15
0.0
 25
0.0
 35
0.0
146
0.0
 13
0.0
 23
0.0
 33
0.0
 16
1.0
 26
0.0
 36
0.0
 17
0.0
 27
1.0
 37
0.0
 76
0
330
234
345
0
346
0
  0
LAYOUT
  5
41A
102
{ACAD_REACTORS
330
1A
102
}
100
AcDbPlotSettings
  1

  2
none_device
  4

  6

 40
0.0
 41
0.0
 42
0.0
 43
0.0
 44
210.0
 45
297.0
 46
0.0
 47
0.0
 48
0.0
 49
0.0
140
0.0
141
0.0
142
1.0
143
1.0
 70
0
 72
1
 73
0
 74
0
  7

 75
0
147
1.0
148
0.0
149
0.0
100
AcDbLayout
  1
Layout1
 70
0
 71
1
 10
0.0
 20
0.0
 11
210.0
 21
297.0
 12
0.0
 22
0.0
 32
0.0
 14
0.0
 24
0.0
 34
0.0
 15
0.0
 25
0.0
 35
0.0
146
0.0
 13
0.0
 23
0.0
 33
0.0
 16
1.0
 26
0.0
 36
0.0
 17
0.0
 27
1.0
 37
0.0
 76
0
330
235
345
0
346
0
  0
ENDSEC
  0
EOF
